<svg width="108" height="30" viewBox="0 0 108 30" fill="none" xmlns="http://www.w3.org/2000/svg">
<path d="M92.338 30C89.7117 30 87.3279 29.3535 85.1864 28.0606C83.045 26.7273 81.3481 24.9293 80.0955 22.6667C78.8834 20.404 78.2773 17.8586 78.2773 15.0303C78.2773 12.202 78.8834 9.65657 80.0955 7.39394C81.3481 5.13131 83.0248 3.33333 85.1258 2C87.2672 0.666667 89.6713 0 92.338 0C94.5198 0 96.4592 0.464646 98.1561 1.39394C99.8935 2.28283 101.287 3.53535 102.338 5.15152C103.388 6.72727 103.974 8.56566 104.096 10.6667V19.3333C103.974 21.3939 103.388 23.2323 102.338 24.8485C101.328 26.4646 99.9541 27.7374 98.2167 28.6667C96.5198 29.5556 94.5602 30 92.338 30ZM93.247 24.8485C95.9541 24.8485 98.1359 23.9394 99.7925 22.1212C101.449 20.2626 102.277 17.899 102.277 15.0303C102.277 13.0505 101.894 11.3333 101.126 9.87879C100.399 8.38384 99.3481 7.23232 97.9743 6.42424C96.6006 5.57576 95.0046 5.15152 93.1864 5.15152C91.3683 5.15152 89.7521 5.57576 88.3379 6.42424C86.9642 7.27273 85.8733 8.44445 85.0652 9.93939C84.2975 11.3939 83.9137 13.0707 83.9137 14.9697C83.9137 16.9091 84.2975 18.6263 85.0652 20.1212C85.8733 21.5758 86.9844 22.7273 88.3986 23.5758C89.8127 24.4242 91.4289 24.8485 93.247 24.8485ZM101.914 29.3939V21.6364L102.944 14.6061L101.914 7.63636V0.606058H107.429V29.3939H101.914Z" fill="#BAFF26"/>
<path d="M67.6247 30C66.0085 30 64.4732 29.798 63.0186 29.3939C61.6045 28.9495 60.2914 28.3434 59.0792 27.5758C57.8671 26.7677 56.8166 25.8182 55.9277 24.7273L59.4429 21.2121C60.4934 22.5051 61.7055 23.4748 63.0792 24.1212C64.453 24.7273 65.9883 25.0303 67.6853 25.0303C69.3823 25.0303 70.6954 24.7475 71.6247 24.1818C72.554 23.5758 73.0186 22.7475 73.0186 21.697C73.0186 20.6465 72.6348 19.8384 71.8671 19.2727C71.1399 18.6667 70.1904 18.1818 69.0186 17.8182C67.8469 17.4141 66.5944 17.0303 65.2611 16.6667C63.9681 16.2626 62.7358 15.7576 61.5641 15.1515C60.3924 14.5455 59.4227 13.7172 58.655 12.6667C57.9277 11.6162 57.5641 10.2222 57.5641 8.48485C57.5641 6.74748 57.9883 5.25253 58.8368 4C59.6853 2.70707 60.857 1.71717 62.352 1.0303C63.8873 0.343433 65.7257 0 67.8671 0C70.1298 0 72.1298 0.404039 73.8671 1.21212C75.6449 1.9798 77.0995 3.15151 78.2308 4.72727L74.7156 8.24242C73.9075 7.19192 72.8974 6.38384 71.6853 5.81818C70.5136 5.25252 69.1803 4.9697 67.6853 4.9697C66.1096 4.9697 64.8974 5.25252 64.0489 5.81818C63.2409 6.34343 62.8368 7.09091 62.8368 8.0606C62.8368 9.0303 63.2005 9.77778 63.9277 10.303C64.655 10.8283 65.6045 11.2727 66.7762 11.6364C67.9883 12 69.2409 12.3838 70.5338 12.7879C71.8267 13.1515 73.059 13.6566 74.2308 14.303C75.4025 14.9495 76.352 15.8182 77.0793 16.9091C77.8469 18 78.2308 19.4343 78.2308 21.2121C78.2308 23.9192 77.2611 26.0606 75.3217 27.6364C73.4227 29.2121 70.857 30 67.6247 30Z" fill="#BAFF26"/>
<path d="M39.6837 30C37.0574 30 34.6736 29.3535 32.5321 28.0606C30.3907 26.7273 28.6938 24.9293 27.4412 22.6667C26.2291 20.404 25.623 17.8586 25.623 15.0303C25.623 12.202 26.2291 9.65657 27.4412 7.39394C28.6938 5.13131 30.3705 3.33333 32.4715 2C34.6129 0.666667 37.017 0 39.6837 0C41.8655 0 43.8049 0.464646 45.5018 1.39394C47.2392 2.28283 48.6332 3.53535 49.6837 5.15152C50.7342 6.72727 51.32 8.56566 51.4412 10.6667V19.3333C51.32 21.3939 50.7342 23.2323 49.6837 24.8485C48.6736 26.4646 47.2998 27.7374 45.5624 28.6667C43.8655 29.5556 41.9059 30 39.6837 30ZM40.5927 24.8485C43.2998 24.8485 45.4816 23.9394 47.1382 22.1212C48.7948 20.2626 49.6231 17.899 49.6231 15.0303C49.6231 13.0505 49.2392 11.3333 48.4715 9.87879C47.7443 8.38384 46.6938 7.23232 45.32 6.42424C43.9463 5.57576 42.3503 5.15152 40.5321 5.15152C38.714 5.15152 37.0978 5.57576 35.6837 6.42424C34.3099 7.27273 33.219 8.44445 32.4109 9.93939C31.6433 11.3939 31.2594 13.0707 31.2594 14.9697C31.2594 16.9091 31.6433 18.6263 32.4109 20.1212C33.219 21.5758 34.3301 22.7273 35.7443 23.5758C37.1584 24.4242 38.7746 24.8485 40.5927 24.8485ZM49.2594 29.3939V21.6364L50.2897 14.6061L49.2594 7.63636V0.606058H54.7746V29.3939H49.2594Z" fill="#BAFF26"/>
<path d="M14.9704 30C13.3542 30 11.8189 29.798 10.3643 29.3939C8.95021 28.9495 7.63707 28.3434 6.42495 27.5758C5.21283 26.7677 4.16233 25.8182 3.27344 24.7273L6.78859 21.2121C7.83909 22.5051 9.05122 23.4748 10.425 24.1212C11.7987 24.7273 13.334 25.0303 15.031 25.0303C16.728 25.0303 18.0411 24.7475 18.9704 24.1818C19.8997 23.5758 20.3643 22.7475 20.3643 21.697C20.3643 20.6465 19.9805 19.8384 19.2128 19.2727C18.4856 18.6667 17.5361 18.1818 16.3643 17.8182C15.1926 17.4141 13.9401 17.0303 12.6068 16.6667C11.3138 16.2626 10.0815 15.7576 8.9098 15.1515C7.73808 14.5455 6.76839 13.7172 6.00071 12.6667C5.27344 11.6162 4.9098 10.2222 4.9098 8.48485C4.9098 6.74748 5.33404 5.25253 6.18253 4C7.03101 2.70707 8.20273 1.71717 9.69768 1.0303C11.233 0.343433 13.0714 0 15.2128 0C17.4755 0 19.4755 0.404039 21.2128 1.21212C22.9906 1.9798 24.4452 3.15151 25.5765 4.72727L22.0613 8.24242C21.2532 7.19192 20.2431 6.38384 19.031 5.81818C17.8593 5.25252 16.526 4.9697 15.031 4.9697C13.4553 4.9697 12.2431 5.25252 11.3947 5.81818C10.5866 6.34343 10.1825 7.09091 10.1825 8.0606C10.1825 9.0303 10.5462 9.77778 11.2734 10.303C12.0007 10.8283 12.9502 11.2727 14.1219 11.6364C15.334 12 16.5866 12.3838 17.8795 12.7879C19.1724 13.1515 20.4048 13.6566 21.5765 14.303C22.7482 14.9495 23.6977 15.8182 24.425 16.9091C25.1926 18 25.5765 19.4343 25.5765 21.2121C25.5765 23.9192 24.6068 26.0606 22.6674 27.6364C20.7684 29.2121 18.2027 30 14.9704 30Z" fill="#BAFF26"/>
<circle cx="2.72727" cy="20.6062" r="2.72727" fill="#BAFF26"/>
</svg>
