<svg width="108" height="30" viewBox="0 0 108 30" fill="none" xmlns="http://www.w3.org/2000/svg">
<path d="M92.334 30C89.7078 30 87.3239 29.3535 85.1825 28.0606C83.0411 26.7273 81.3441 24.9293 80.0916 22.6667C78.8795 20.404 78.2734 17.8586 78.2734 15.0303C78.2734 12.202 78.8795 9.65657 80.0916 7.39394C81.3441 5.13131 83.0209 3.33333 85.1219 2C87.2633 0.666667 89.6674 0 92.334 0C94.5159 0 96.4553 0.464646 98.1522 1.39394C99.8896 2.28283 101.284 3.53535 102.334 5.15152C103.385 6.72727 103.97 8.56566 104.092 10.6667V19.3333C103.97 21.3939 103.385 23.2323 102.334 24.8485C101.324 26.4646 99.9502 27.7374 98.2128 28.6667C96.5159 29.5556 94.5563 30 92.334 30ZM93.2431 24.8485C95.9502 24.8485 98.132 23.9394 99.7886 22.1212C101.445 20.2626 102.273 17.899 102.273 15.0303C102.273 13.0505 101.89 11.3333 101.122 9.87879C100.395 8.38384 99.3441 7.23232 97.9704 6.42424C96.5967 5.57576 95.0007 5.15152 93.1825 5.15152C91.3643 5.15152 89.7482 5.57576 88.334 6.42424C86.9603 7.27273 85.8694 8.44445 85.0613 9.93939C84.2936 11.3939 83.9098 13.0707 83.9098 14.9697C83.9098 16.9091 84.2936 18.6263 85.0613 20.1212C85.8694 21.5758 86.9805 22.7273 88.3947 23.5758C89.8088 24.4242 91.425 24.8485 93.2431 24.8485ZM101.91 29.3939V21.6364L102.94 14.6061L101.91 7.63636V0.606058H107.425V29.3939H101.91Z" fill="#4F1787"/>
<path d="M67.6247 30C66.0085 30 64.4732 29.798 63.0186 29.3939C61.6045 28.9495 60.2914 28.3434 59.0792 27.5758C57.8671 26.7677 56.8166 25.8182 55.9277 24.7273L59.4429 21.2121C60.4934 22.5051 61.7055 23.4748 63.0792 24.1212C64.453 24.7273 65.9883 25.0303 67.6853 25.0303C69.3823 25.0303 70.6954 24.7475 71.6247 24.1818C72.554 23.5758 73.0186 22.7475 73.0186 21.697C73.0186 20.6465 72.6348 19.8384 71.8671 19.2727C71.1399 18.6667 70.1904 18.1818 69.0186 17.8182C67.8469 17.4141 66.5944 17.0303 65.2611 16.6667C63.9681 16.2626 62.7358 15.7576 61.5641 15.1515C60.3924 14.5455 59.4227 13.7172 58.655 12.6667C57.9277 11.6162 57.5641 10.2222 57.5641 8.48485C57.5641 6.74748 57.9883 5.25253 58.8368 4C59.6853 2.70707 60.857 1.71717 62.352 1.0303C63.8873 0.343433 65.7257 0 67.8671 0C70.1298 0 72.1298 0.404039 73.8671 1.21212C75.6449 1.9798 77.0995 3.15151 78.2308 4.72727L74.7156 8.24242C73.9075 7.19192 72.8974 6.38384 71.6853 5.81818C70.5136 5.25252 69.1803 4.9697 67.6853 4.9697C66.1096 4.9697 64.8974 5.25252 64.0489 5.81818C63.2409 6.34343 62.8368 7.09091 62.8368 8.0606C62.8368 9.0303 63.2005 9.77778 63.9277 10.303C64.655 10.8283 65.6045 11.2727 66.7762 11.6364C67.9883 12 69.2409 12.3838 70.5338 12.7879C71.8267 13.1515 73.059 13.6566 74.2308 14.303C75.4025 14.9495 76.352 15.8182 77.0793 16.9091C77.8469 18 78.2308 19.4343 78.2308 21.2121C78.2308 23.9192 77.2611 26.0606 75.3217 27.6364C73.4227 29.2121 70.857 30 67.6247 30Z" fill="#4F1787"/>
<path d="M39.6817 30C37.0554 30 34.6716 29.3535 32.5302 28.0606C30.3888 26.7273 28.6918 24.9293 27.4393 22.6667C26.2272 20.404 25.6211 17.8586 25.6211 15.0303C25.6211 12.202 26.2272 9.65657 27.4393 7.39394C28.6918 5.13131 30.3686 3.33333 32.4696 2C34.611 0.666667 37.015 0 39.6817 0C41.8635 0 43.8029 0.464646 45.4999 1.39394C47.2373 2.28283 48.6312 3.53535 49.6817 5.15152C50.7322 6.72727 51.3181 8.56566 51.4393 10.6667V19.3333C51.3181 21.3939 50.7322 23.2323 49.6817 24.8485C48.6716 26.4646 47.2979 27.7374 45.5605 28.6667C43.8635 29.5556 41.9039 30 39.6817 30ZM40.5908 24.8485C43.2979 24.8485 45.4797 23.9394 47.1363 22.1212C48.7928 20.2626 49.6211 17.899 49.6211 15.0303C49.6211 13.0505 49.2373 11.3333 48.4696 9.87879C47.7423 8.38384 46.6918 7.23232 45.3181 6.42424C43.9443 5.57576 42.3484 5.15152 40.5302 5.15152C38.712 5.15152 37.0958 5.57576 35.6817 6.42424C34.308 7.27273 33.2171 8.44445 32.409 9.93939C31.6413 11.3939 31.2575 13.0707 31.2575 14.9697C31.2575 16.9091 31.6413 18.6263 32.409 20.1212C33.2171 21.5758 34.3282 22.7273 35.7423 23.5758C37.1564 24.4242 38.7726 24.8485 40.5908 24.8485ZM49.2575 29.3939V21.6364L50.2878 14.6061L49.2575 7.63636V0.606058H54.7726V29.3939H49.2575Z" fill="#4F1787"/>
<path d="M14.9685 30C13.3523 30 11.8169 29.798 10.3624 29.3939C8.94825 28.9495 7.63512 28.3434 6.423 27.5758C5.21088 26.7677 4.16037 25.8182 3.27148 24.7273L6.78664 21.2121C7.83714 22.5051 9.04926 23.4748 10.423 24.1212C11.7967 24.7273 13.3321 25.0303 15.0291 25.0303C16.726 25.0303 18.0392 24.7475 18.9685 24.1818C19.8977 23.5758 20.3624 22.7475 20.3624 21.697C20.3624 20.6465 19.9786 19.8384 19.2109 19.2727C18.4836 18.6667 17.5341 18.1818 16.3624 17.8182C15.1907 17.4141 13.9382 17.0303 12.6048 16.6667C11.3119 16.2626 10.0796 15.7576 8.90785 15.1515C7.73613 14.5455 6.76643 13.7172 5.99876 12.6667C5.27148 11.6162 4.90785 10.2222 4.90785 8.48485C4.90785 6.74748 5.33209 5.25253 6.18058 4C7.02906 2.70707 8.20078 1.71717 9.69573 1.0303C11.2311 0.343433 13.0695 0 15.2109 0C17.4735 0 19.4735 0.404039 21.2109 1.21212C22.9887 1.9798 24.4432 3.15151 25.5745 4.72727L22.0594 8.24242C21.2513 7.19192 20.2412 6.38384 19.0291 5.81818C17.8573 5.25252 16.524 4.9697 15.0291 4.9697C13.4533 4.9697 12.2412 5.25252 11.3927 5.81818C10.5846 6.34343 10.1806 7.09091 10.1806 8.0606C10.1806 9.0303 10.5442 9.77778 11.2715 10.303C11.9988 10.8283 12.9483 11.2727 14.12 11.6364C15.3321 12 16.5846 12.3838 17.8775 12.7879C19.1705 13.1515 20.4028 13.6566 21.5745 14.303C22.7462 14.9495 23.6957 15.8182 24.423 16.9091C25.1907 18 25.5745 19.4343 25.5745 21.2121C25.5745 23.9192 24.6048 26.0606 22.6654 27.6364C20.7664 29.2121 18.2008 30 14.9685 30Z" fill="#4F1787"/>
<ellipse cx="2.72727" cy="20.6062" rx="2.72727" ry="2.72727" fill="#BAFF26"/>
</svg>
