<svg width="177" height="137" viewBox="0 0 177 137" fill="none" xmlns="http://www.w3.org/2000/svg">
<g filter="url(#filter0_d_219_1198)">
<rect x="14" y="6" width="157" height="117" rx="10" fill="white"/>
<rect x="14.5" y="6.5" width="156" height="116" rx="9.5" stroke="#4F1787"/>
<path d="M71.788 34V21.868H73.48V34H71.788ZM67.54 23.056V21.508H77.71V23.056H67.54ZM79.456 34V25.45H81.076V34H79.456ZM80.266 23.74C79.966 23.74 79.72 23.644 79.528 23.452C79.336 23.248 79.24 22.996 79.24 22.696C79.24 22.408 79.336 22.168 79.528 21.976C79.72 21.772 79.966 21.67 80.266 21.67C80.566 21.67 80.812 21.772 81.004 21.976C81.196 22.168 81.292 22.408 81.292 22.696C81.292 22.996 81.196 23.248 81.004 23.452C80.812 23.644 80.566 23.74 80.266 23.74ZM87.0094 37.762C86.1334 37.762 85.3534 37.6 84.6694 37.276C83.9974 36.952 83.4574 36.496 83.0494 35.908L84.0934 34.846C84.4414 35.29 84.8554 35.626 85.3354 35.854C85.8154 36.094 86.3854 36.214 87.0454 36.214C87.9214 36.214 88.6114 35.98 89.1154 35.512C89.6314 35.056 89.8894 34.438 89.8894 33.658V31.534L90.1774 29.608L89.8894 27.7V25.45H91.5094V33.658C91.5094 34.474 91.3174 35.188 90.9334 35.8C90.5614 36.412 90.0334 36.892 89.3494 37.24C88.6774 37.588 87.8974 37.762 87.0094 37.762ZM87.0094 33.856C86.2294 33.856 85.5274 33.67 84.9034 33.298C84.2914 32.926 83.8054 32.416 83.4454 31.768C83.0854 31.108 82.9054 30.37 82.9054 29.554C82.9054 28.738 83.0854 28.012 83.4454 27.376C83.8054 26.728 84.2914 26.218 84.9034 25.846C85.5274 25.462 86.2294 25.27 87.0094 25.27C87.6814 25.27 88.2754 25.402 88.7914 25.666C89.3074 25.93 89.7154 26.302 90.0154 26.782C90.3274 27.25 90.4954 27.802 90.5194 28.438V30.706C90.4834 31.33 90.3094 31.882 89.9974 32.362C89.6974 32.83 89.2894 33.196 88.7734 33.46C88.2574 33.724 87.6694 33.856 87.0094 33.856ZM87.3334 32.326C87.8614 32.326 88.3234 32.212 88.7194 31.984C89.1274 31.756 89.4394 31.438 89.6554 31.03C89.8714 30.61 89.9794 30.124 89.9794 29.572C89.9794 29.02 89.8654 28.54 89.6374 28.132C89.4214 27.712 89.1154 27.388 88.7194 27.16C88.3234 26.92 87.8554 26.8 87.3154 26.8C86.7754 26.8 86.3014 26.92 85.8934 27.16C85.4854 27.388 85.1614 27.712 84.9214 28.132C84.6934 28.54 84.5794 29.014 84.5794 29.554C84.5794 30.094 84.6934 30.574 84.9214 30.994C85.1614 31.414 85.4854 31.744 85.8934 31.984C86.3134 32.212 86.7934 32.326 87.3334 32.326ZM97.8472 34.18C96.9952 34.18 96.2272 33.988 95.5432 33.604C94.8592 33.208 94.3192 32.674 93.9232 32.002C93.5272 31.33 93.3292 30.568 93.3292 29.716C93.3292 28.876 93.5212 28.12 93.9052 27.448C94.3012 26.776 94.8292 26.248 95.4892 25.864C96.1612 25.468 96.9112 25.27 97.7392 25.27C98.5312 25.27 99.2272 25.45 99.8272 25.81C100.439 26.17 100.913 26.668 101.249 27.304C101.597 27.94 101.771 28.66 101.771 29.464C101.771 29.584 101.765 29.716 101.753 29.86C101.741 29.992 101.717 30.148 101.681 30.328H94.4632V28.978H100.817L100.223 29.5C100.223 28.924 100.121 28.438 99.9172 28.042C99.7132 27.634 99.4252 27.322 99.0532 27.106C98.6812 26.878 98.2312 26.764 97.7032 26.764C97.1512 26.764 96.6652 26.884 96.2452 27.124C95.8252 27.364 95.5012 27.7 95.2732 28.132C95.0452 28.564 94.9312 29.074 94.9312 29.662C94.9312 30.262 95.0512 30.79 95.2912 31.246C95.5312 31.69 95.8732 32.038 96.3172 32.29C96.7612 32.53 97.2712 32.65 97.8472 32.65C98.3272 32.65 98.7652 32.566 99.1612 32.398C99.5692 32.23 99.9172 31.978 100.205 31.642L101.249 32.704C100.841 33.184 100.337 33.55 99.7372 33.802C99.1492 34.054 98.5192 34.18 97.8472 34.18ZM103.538 34V25.45H105.158V34H103.538ZM105.158 29.122L104.546 28.852C104.546 27.76 104.798 26.89 105.302 26.242C105.806 25.594 106.532 25.27 107.48 25.27C107.912 25.27 108.302 25.348 108.65 25.504C108.998 25.648 109.322 25.894 109.622 26.242L108.56 27.34C108.38 27.148 108.182 27.01 107.966 26.926C107.75 26.842 107.498 26.8 107.21 26.8C106.61 26.8 106.118 26.992 105.734 27.376C105.35 27.76 105.158 28.342 105.158 29.122ZM113.287 34.18C112.807 34.18 112.351 34.12 111.919 34C111.499 33.868 111.109 33.688 110.749 33.46C110.389 33.22 110.077 32.938 109.813 32.614L110.857 31.57C111.169 31.954 111.529 32.242 111.937 32.434C112.345 32.614 112.801 32.704 113.305 32.704C113.809 32.704 114.199 32.62 114.475 32.452C114.751 32.272 114.889 32.026 114.889 31.714C114.889 31.402 114.775 31.162 114.547 30.994C114.331 30.814 114.049 30.67 113.701 30.562C113.353 30.442 112.981 30.328 112.585 30.22C112.201 30.1 111.835 29.95 111.487 29.77C111.139 29.59 110.851 29.344 110.623 29.032C110.407 28.72 110.299 28.306 110.299 27.79C110.299 27.274 110.425 26.83 110.677 26.458C110.929 26.074 111.277 25.78 111.721 25.576C112.177 25.372 112.723 25.27 113.359 25.27C114.031 25.27 114.625 25.39 115.141 25.63C115.669 25.858 116.101 26.206 116.437 26.674L115.393 27.718C115.153 27.406 114.853 27.166 114.493 26.998C114.145 26.83 113.749 26.746 113.305 26.746C112.837 26.746 112.477 26.83 112.225 26.998C111.985 27.154 111.865 27.376 111.865 27.664C111.865 27.952 111.973 28.174 112.189 28.33C112.405 28.486 112.687 28.618 113.035 28.726C113.395 28.834 113.767 28.948 114.151 29.068C114.535 29.176 114.901 29.326 115.249 29.518C115.597 29.71 115.879 29.968 116.095 30.292C116.323 30.616 116.437 31.042 116.437 31.57C116.437 32.374 116.149 33.01 115.573 33.478C115.009 33.946 114.247 34.18 113.287 34.18Z" fill="black"/>
<path d="M28.746 63.14C28.046 63.14 27.4207 62.986 26.87 62.678C26.3287 62.3607 25.8993 61.9313 25.582 61.39C25.2647 60.8393 25.106 60.2233 25.106 59.542V53.368H26.142V59.486C26.142 60.0273 26.254 60.4987 26.478 60.9C26.702 61.3013 27.01 61.6093 27.402 61.824C27.8033 62.0387 28.2513 62.146 28.746 62.146C29.2407 62.146 29.6793 62.0387 30.062 61.824C30.454 61.6093 30.762 61.306 30.986 60.914C31.2193 60.5127 31.336 60.0413 31.336 59.5V53.368H32.358V59.556C32.358 60.2373 32.1993 60.8487 31.882 61.39C31.574 61.9313 31.1447 62.3607 30.594 62.678C30.0527 62.986 29.4367 63.14 28.746 63.14ZM39.2429 63V59.136C39.2429 58.5573 39.0703 58.0907 38.7249 57.736C38.3889 57.372 37.9409 57.19 37.3809 57.19C36.9983 57.19 36.6623 57.274 36.3729 57.442C36.0836 57.61 35.8549 57.8387 35.6869 58.128C35.5189 58.4173 35.4349 58.7487 35.4349 59.122L34.9869 58.87C34.9869 58.3753 35.1036 57.932 35.3369 57.54C35.5703 57.148 35.8829 56.84 36.2749 56.616C36.6763 56.392 37.1336 56.28 37.6469 56.28C38.1509 56.28 38.5989 56.4013 38.9909 56.644C39.3829 56.8867 39.6863 57.2133 39.9009 57.624C40.1249 58.0347 40.2369 58.4827 40.2369 58.968V63H39.2429ZM34.4549 63V56.42H35.4349V63H34.4549ZM42.0702 63V56.42H43.0642V63H42.0702ZM42.5602 54.992C42.3735 54.992 42.2148 54.9267 42.0842 54.796C41.9535 54.656 41.8882 54.4927 41.8882 54.306C41.8882 54.11 41.9535 53.9467 42.0842 53.816C42.2148 53.6853 42.3735 53.62 42.5602 53.62C42.7655 53.62 42.9288 53.6853 43.0502 53.816C43.1808 53.9467 43.2462 54.11 43.2462 54.306C43.2462 54.4927 43.1808 54.656 43.0502 54.796C42.9288 54.9267 42.7655 54.992 42.5602 54.992ZM47.3466 63L44.3086 56.42H45.4006L47.9626 62.174H47.3466L49.9226 56.42H50.9866L47.9206 63H47.3466ZM54.9656 63.14C54.3029 63.14 53.7103 62.9907 53.1876 62.692C52.6649 62.3933 52.2496 61.9827 51.9416 61.46C51.6429 60.9373 51.4936 60.3493 51.4936 59.696C51.4936 59.052 51.6429 58.4733 51.9416 57.96C52.2403 57.4373 52.6463 57.0267 53.1596 56.728C53.6729 56.4293 54.2469 56.28 54.8816 56.28C55.4789 56.28 56.0063 56.4153 56.4636 56.686C56.9303 56.9567 57.2943 57.3347 57.5556 57.82C57.8263 58.296 57.9616 58.8467 57.9616 59.472C57.9616 59.5467 57.9569 59.6353 57.9476 59.738C57.9383 59.8313 57.9196 59.9433 57.8916 60.074H52.1936V59.234H57.3596L57.0096 59.542C57.0189 59.0567 56.9349 58.6413 56.7576 58.296C56.5896 57.9413 56.3423 57.6707 56.0156 57.484C55.6983 57.288 55.3109 57.19 54.8536 57.19C54.3776 57.19 53.9623 57.2927 53.6076 57.498C53.2529 57.7033 52.9729 57.9927 52.7676 58.366C52.5716 58.73 52.4736 59.164 52.4736 59.668C52.4736 60.172 52.5763 60.6153 52.7816 60.998C52.9963 61.3807 53.2903 61.6793 53.6636 61.894C54.0463 62.1087 54.4849 62.216 54.9796 62.216C55.3809 62.216 55.7496 62.146 56.0856 62.006C56.4216 61.8567 56.7063 61.6373 56.9396 61.348L57.5696 61.992C57.2616 62.356 56.8789 62.6407 56.4216 62.846C55.9736 63.042 55.4883 63.14 54.9656 63.14ZM59.4608 63V56.42H60.4408V63H59.4608ZM60.4408 59.164L60.0348 58.982C60.0348 58.1513 60.2355 57.4933 60.6368 57.008C61.0475 56.5227 61.6075 56.28 62.3168 56.28C62.6435 56.28 62.9421 56.3407 63.2128 56.462C63.4835 56.574 63.7355 56.756 63.9688 57.008L63.3248 57.694C63.1661 57.5167 62.9888 57.3907 62.7928 57.316C62.6061 57.2413 62.3915 57.204 62.1488 57.204C61.6448 57.204 61.2341 57.372 60.9168 57.708C60.5995 58.0347 60.4408 58.52 60.4408 59.164ZM66.8772 63.14C66.5225 63.14 66.1819 63.0933 65.8552 63C65.5285 62.8973 65.2299 62.7573 64.9592 62.58C64.6979 62.4027 64.4692 62.1927 64.2732 61.95L64.9032 61.306C65.1645 61.6233 65.4585 61.8613 65.7852 62.02C66.1212 62.1693 66.4945 62.244 66.9052 62.244C67.3439 62.244 67.6845 62.16 67.9272 61.992C68.1792 61.824 68.3052 61.5907 68.3052 61.292C68.3052 61.012 68.2165 60.7927 68.0392 60.634C67.8619 60.4753 67.6332 60.3493 67.3532 60.256C67.0825 60.1627 66.7932 60.074 66.4852 59.99C66.1772 59.8967 65.8832 59.7847 65.6032 59.654C65.3232 59.514 65.0945 59.3227 64.9172 59.08C64.7492 58.8373 64.6652 58.52 64.6652 58.128C64.6652 57.7547 64.7539 57.4327 64.9312 57.162C65.1179 56.882 65.3792 56.6673 65.7152 56.518C66.0605 56.3593 66.4665 56.28 66.9332 56.28C67.4279 56.28 67.8759 56.3687 68.2772 56.546C68.6785 56.7233 69.0005 56.9847 69.2432 57.33L68.6132 57.96C68.4172 57.708 68.1699 57.5167 67.8712 57.386C67.5819 57.246 67.2552 57.176 66.8912 57.176C66.4712 57.176 66.1492 57.26 65.9252 57.428C65.7105 57.5867 65.6032 57.7967 65.6032 58.058C65.6032 58.31 65.6919 58.5107 65.8692 58.66C66.0465 58.8 66.2705 58.9167 66.5412 59.01C66.8212 59.094 67.1152 59.1827 67.4232 59.276C67.7312 59.36 68.0252 59.4767 68.3052 59.626C68.5852 59.766 68.8092 59.962 68.9772 60.214C69.1545 60.4567 69.2432 60.788 69.2432 61.208C69.2432 61.796 69.0285 62.2673 68.5992 62.622C68.1792 62.9673 67.6052 63.14 66.8772 63.14ZM70.7948 63V56.42H71.7888V63H70.7948ZM71.2848 54.992C71.0981 54.992 70.9394 54.9267 70.8088 54.796C70.6781 54.656 70.6128 54.4927 70.6128 54.306C70.6128 54.11 70.6781 53.9467 70.8088 53.816C70.9394 53.6853 71.0981 53.62 71.2848 53.62C71.4901 53.62 71.6534 53.6853 71.7748 53.816C71.9054 53.9467 71.9708 54.11 71.9708 54.306C71.9708 54.4927 71.9054 54.656 71.7748 54.796C71.6534 54.9267 71.4901 54.992 71.2848 54.992ZM74.7973 63V53.648H75.7773V63H74.7973ZM73.1313 57.302V56.42H77.4293V57.302H73.1313ZM80.9772 63.028L78.0932 56.42H79.1712L81.4952 61.936H81.0892L83.5392 56.42H84.6312L81.5372 63.028H80.9772ZM79.1852 65.772L80.9912 62.034L81.5372 63.028L80.2632 65.772H79.1852ZM86.6205 63.14C86.3871 63.14 86.1958 63.0607 86.0465 62.902C85.9065 62.7433 85.8365 62.5567 85.8365 62.342C85.8365 62.1087 85.9065 61.9173 86.0465 61.768C86.1958 61.6093 86.3871 61.53 86.6205 61.53C86.8445 61.53 87.0311 61.6093 87.1805 61.768C87.3391 61.9173 87.4185 62.1087 87.4185 62.342C87.4185 62.5567 87.3391 62.7433 87.1805 62.902C87.0311 63.0607 86.8445 63.14 86.6205 63.14ZM86.6205 58.73C86.3871 58.73 86.1958 58.6507 86.0465 58.492C85.9065 58.3333 85.8365 58.1467 85.8365 57.932C85.8365 57.6987 85.9065 57.5073 86.0465 57.358C86.1958 57.2087 86.3871 57.134 86.6205 57.134C86.8445 57.134 87.0311 57.2087 87.1805 57.358C87.3391 57.5073 87.4185 57.6987 87.4185 57.932C87.4185 58.1467 87.3391 58.3333 87.1805 58.492C87.0311 58.6507 86.8445 58.73 86.6205 58.73ZM93.306 58.688V57.82H96.106C96.7407 57.82 97.226 57.6613 97.562 57.344C97.898 57.0173 98.066 56.5833 98.066 56.042C98.066 55.5193 97.898 55.0947 97.562 54.768C97.226 54.432 96.7407 54.264 96.106 54.264H93.306V53.368H96.106C96.7313 53.368 97.268 53.4847 97.716 53.718C98.164 53.942 98.5047 54.2547 98.738 54.656C98.9807 55.0573 99.102 55.5147 99.102 56.028C99.102 56.56 98.9807 57.0267 98.738 57.428C98.5047 57.8293 98.164 58.142 97.716 58.366C97.268 58.5807 96.7313 58.688 96.106 58.688H93.306ZM92.648 63V53.368H93.67V63H92.648ZM98.472 63L94.86 58.548L95.854 58.226L99.788 63H98.472ZM101.316 63V53.368H102.338V63H101.316ZM107.476 63V53.634H108.512V63H107.476ZM104.088 54.306V53.368H111.9V54.306H104.088Z" fill="black"/>
<path d="M25.232 91V81.368H25.96L30.118 88.186H29.6L33.758 81.368H34.486V91H33.45V83.16L33.688 83.216L30.216 88.914H29.488L26.016 83.216L26.254 83.16V91H25.232ZM39.7351 91.14C39.0725 91.14 38.4798 90.9907 37.9571 90.692C37.4345 90.3933 37.0191 89.9827 36.7111 89.46C36.4125 88.9373 36.2631 88.3493 36.2631 87.696C36.2631 87.052 36.4125 86.4733 36.7111 85.96C37.0098 85.4373 37.4158 85.0267 37.9291 84.728C38.4425 84.4293 39.0165 84.28 39.6511 84.28C40.2485 84.28 40.7758 84.4153 41.2331 84.686C41.6998 84.9567 42.0638 85.3347 42.3251 85.82C42.5958 86.296 42.7311 86.8467 42.7311 87.472C42.7311 87.5467 42.7265 87.6353 42.7171 87.738C42.7078 87.8313 42.6891 87.9433 42.6611 88.074H36.9631V87.234H42.1291L41.7791 87.542C41.7885 87.0567 41.7045 86.6413 41.5271 86.296C41.3591 85.9413 41.1118 85.6707 40.7851 85.484C40.4678 85.288 40.0805 85.19 39.6231 85.19C39.1471 85.19 38.7318 85.2927 38.3771 85.498C38.0225 85.7033 37.7425 85.9927 37.5371 86.366C37.3411 86.73 37.2431 87.164 37.2431 87.668C37.2431 88.172 37.3458 88.6153 37.5511 88.998C37.7658 89.3807 38.0598 89.6793 38.4331 89.894C38.8158 90.1087 39.2545 90.216 39.7491 90.216C40.1505 90.216 40.5191 90.146 40.8551 90.006C41.1911 89.8567 41.4758 89.6373 41.7091 89.348L42.3391 89.992C42.0311 90.356 41.6485 90.6407 41.1911 90.846C40.7431 91.042 40.2578 91.14 39.7351 91.14ZM44.2303 91V84.42H45.2103V91H44.2303ZM48.7523 91V86.968C48.7523 86.4267 48.589 85.9973 48.2623 85.68C47.9357 85.3533 47.525 85.19 47.0303 85.19C46.6943 85.19 46.3863 85.2647 46.1063 85.414C45.8357 85.554 45.6163 85.7547 45.4483 86.016C45.2897 86.2773 45.2103 86.59 45.2103 86.954L44.7623 86.772C44.7623 86.268 44.8743 85.8293 45.0983 85.456C45.3223 85.0827 45.621 84.7933 45.9943 84.588C46.377 84.3827 46.8063 84.28 47.2823 84.28C47.749 84.28 48.1643 84.3827 48.5283 84.588C48.9017 84.7933 49.1957 85.0827 49.4103 85.456C49.6343 85.8293 49.7463 86.2727 49.7463 86.786V91H48.7523ZM53.2883 91V86.968C53.2883 86.4267 53.125 85.9973 52.7983 85.68C52.4717 85.3533 52.0563 85.19 51.5523 85.19C51.2257 85.19 50.9223 85.2647 50.6423 85.414C50.3717 85.554 50.1523 85.7547 49.9843 86.016C49.8257 86.2773 49.7463 86.59 49.7463 86.954L49.1583 86.772C49.1863 86.268 49.317 85.8293 49.5503 85.456C49.793 85.0827 50.1057 84.7933 50.4883 84.588C50.8803 84.3827 51.3097 84.28 51.7763 84.28C52.243 84.28 52.663 84.3827 53.0363 84.588C53.419 84.7933 53.7177 85.0827 53.9323 85.456C54.1563 85.8293 54.2683 86.2727 54.2683 86.786V91H53.2883ZM59.5132 91.14C59.0092 91.14 58.5565 91.0373 58.1552 90.832C57.7539 90.6267 57.4225 90.3467 57.1612 89.992C56.9092 89.628 56.7552 89.208 56.6992 88.732V86.674C56.7552 86.1887 56.9139 85.7687 57.1752 85.414C57.4365 85.05 57.7679 84.77 58.1692 84.574C58.5799 84.378 59.0279 84.28 59.5132 84.28C60.1199 84.28 60.6659 84.434 61.1512 84.742C61.6365 85.0407 62.0192 85.4513 62.2992 85.974C62.5885 86.4873 62.7332 87.0707 62.7332 87.724C62.7332 88.368 62.5932 88.9467 62.3132 89.46C62.0332 89.9733 61.6459 90.384 61.1512 90.692C60.6659 90.9907 60.1199 91.14 59.5132 91.14ZM56.1112 91V81.088H57.0912V86.03L56.8952 87.612L57.0912 89.236V91H56.1112ZM59.3452 90.202C59.8119 90.202 60.2225 90.0993 60.5772 89.894C60.9319 89.6793 61.2072 89.3853 61.4032 89.012C61.6085 88.6293 61.7112 88.1953 61.7112 87.71C61.7112 87.2153 61.6085 86.7813 61.4032 86.408C61.2072 86.0347 60.9319 85.7407 60.5772 85.526C60.2225 85.3113 59.8165 85.204 59.3592 85.204C58.9019 85.204 58.4959 85.3113 58.1412 85.526C57.7959 85.7407 57.5252 86.0347 57.3292 86.408C57.1332 86.7813 57.0352 87.2153 57.0352 87.71C57.0352 88.1953 57.1332 88.6293 57.3292 89.012C57.5252 89.3853 57.7959 89.6793 58.1412 89.894C58.4865 90.0993 58.8879 90.202 59.3452 90.202ZM67.3386 91.14C66.676 91.14 66.0833 90.9907 65.5606 90.692C65.038 90.3933 64.6226 89.9827 64.3146 89.46C64.016 88.9373 63.8666 88.3493 63.8666 87.696C63.8666 87.052 64.016 86.4733 64.3146 85.96C64.6133 85.4373 65.0193 85.0267 65.5326 84.728C66.046 84.4293 66.62 84.28 67.2546 84.28C67.852 84.28 68.3793 84.4153 68.8366 84.686C69.3033 84.9567 69.6673 85.3347 69.9286 85.82C70.1993 86.296 70.3346 86.8467 70.3346 87.472C70.3346 87.5467 70.33 87.6353 70.3206 87.738C70.3113 87.8313 70.2926 87.9433 70.2646 88.074H64.5666V87.234H69.7326L69.3826 87.542C69.392 87.0567 69.308 86.6413 69.1306 86.296C68.9626 85.9413 68.7153 85.6707 68.3886 85.484C68.0713 85.288 67.684 85.19 67.2266 85.19C66.7506 85.19 66.3353 85.2927 65.9806 85.498C65.626 85.7033 65.346 85.9927 65.1406 86.366C64.9446 86.73 64.8466 87.164 64.8466 87.668C64.8466 88.172 64.9493 88.6153 65.1546 88.998C65.3693 89.3807 65.6633 89.6793 66.0366 89.894C66.4193 90.1087 66.858 90.216 67.3526 90.216C67.754 90.216 68.1226 90.146 68.4586 90.006C68.7946 89.8567 69.0793 89.6373 69.3126 89.348L69.9426 89.992C69.6346 90.356 69.252 90.6407 68.7946 90.846C68.3466 91.042 67.8613 91.14 67.3386 91.14ZM71.8338 91V84.42H72.8138V91H71.8338ZM72.8138 87.164L72.4078 86.982C72.4078 86.1513 72.6085 85.4933 73.0098 85.008C73.4205 84.5227 73.9805 84.28 74.6898 84.28C75.0165 84.28 75.3152 84.3407 75.5858 84.462C75.8565 84.574 76.1085 84.756 76.3418 85.008L75.6978 85.694C75.5392 85.5167 75.3618 85.3907 75.1658 85.316C74.9792 85.2413 74.7645 85.204 74.5218 85.204C74.0178 85.204 73.6072 85.372 73.2898 85.708C72.9725 86.0347 72.8138 86.52 72.8138 87.164ZM79.2502 91.14C78.8956 91.14 78.5549 91.0933 78.2282 91C77.9016 90.8973 77.6029 90.7573 77.3322 90.58C77.0709 90.4027 76.8422 90.1927 76.6462 89.95L77.2762 89.306C77.5376 89.6233 77.8316 89.8613 78.1582 90.02C78.4942 90.1693 78.8676 90.244 79.2782 90.244C79.7169 90.244 80.0576 90.16 80.3002 89.992C80.5522 89.824 80.6782 89.5907 80.6782 89.292C80.6782 89.012 80.5896 88.7927 80.4122 88.634C80.2349 88.4753 80.0062 88.3493 79.7262 88.256C79.4556 88.1627 79.1662 88.074 78.8582 87.99C78.5502 87.8967 78.2562 87.7847 77.9762 87.654C77.6962 87.514 77.4676 87.3227 77.2902 87.08C77.1222 86.8373 77.0382 86.52 77.0382 86.128C77.0382 85.7547 77.1269 85.4327 77.3042 85.162C77.4909 84.882 77.7522 84.6673 78.0882 84.518C78.4336 84.3593 78.8396 84.28 79.3062 84.28C79.8009 84.28 80.2489 84.3687 80.6502 84.546C81.0516 84.7233 81.3736 84.9847 81.6162 85.33L80.9862 85.96C80.7902 85.708 80.5429 85.5167 80.2442 85.386C79.9549 85.246 79.6282 85.176 79.2642 85.176C78.8442 85.176 78.5222 85.26 78.2982 85.428C78.0836 85.5867 77.9762 85.7967 77.9762 86.058C77.9762 86.31 78.0649 86.5107 78.2422 86.66C78.4196 86.8 78.6436 86.9167 78.9142 87.01C79.1942 87.094 79.4882 87.1827 79.7962 87.276C80.1042 87.36 80.3982 87.4767 80.6782 87.626C80.9582 87.766 81.1822 87.962 81.3502 88.214C81.5276 88.4567 81.6162 88.788 81.6162 89.208C81.6162 89.796 81.4016 90.2673 80.9722 90.622C80.5522 90.9673 79.9782 91.14 79.2502 91.14ZM84.0638 91.14C83.8305 91.14 83.6392 91.0607 83.4898 90.902C83.3498 90.7433 83.2798 90.5567 83.2798 90.342C83.2798 90.1087 83.3498 89.9173 83.4898 89.768C83.6392 89.6093 83.8305 89.53 84.0638 89.53C84.2878 89.53 84.4745 89.6093 84.6238 89.768C84.7825 89.9173 84.8618 90.1087 84.8618 90.342C84.8618 90.5567 84.7825 90.7433 84.6238 90.902C84.4745 91.0607 84.2878 91.14 84.0638 91.14ZM84.0638 86.73C83.8305 86.73 83.6392 86.6507 83.4898 86.492C83.3498 86.3333 83.2798 86.1467 83.2798 85.932C83.2798 85.6987 83.3498 85.5073 83.4898 85.358C83.6392 85.2087 83.8305 85.134 84.0638 85.134C84.2878 85.134 84.4745 85.2087 84.6238 85.358C84.7825 85.5073 84.8618 85.6987 84.8618 85.932C84.8618 86.1467 84.7825 86.3333 84.6238 86.492C84.4745 86.6507 84.2878 86.73 84.0638 86.73ZM91.5266 91.14C90.9853 91.14 90.5093 91.0373 90.0986 90.832C89.6973 90.6173 89.3519 90.328 89.0626 89.964L89.7906 89.292C89.9959 89.572 90.2386 89.7867 90.5186 89.936C90.7986 90.076 91.1253 90.146 91.4986 90.146C91.8346 90.146 92.1426 90.076 92.4226 89.936C92.7026 89.7867 92.9266 89.558 93.0946 89.25C93.2626 88.942 93.3466 88.5547 93.3466 88.088V81.368H94.3826V88.074C94.3826 88.718 94.2519 89.2687 93.9906 89.726C93.7386 90.1833 93.3933 90.5333 92.9546 90.776C92.5253 91.0187 92.0493 91.14 91.5266 91.14ZM99.4662 91.14C98.8316 91.14 98.2529 90.986 97.7302 90.678C97.2169 90.37 96.8062 89.9547 96.4982 89.432C96.1996 88.9093 96.0502 88.326 96.0502 87.682C96.0502 87.0473 96.1996 86.4733 96.4982 85.96C96.8062 85.4467 97.2169 85.0407 97.7302 84.742C98.2529 84.434 98.8316 84.28 99.4662 84.28C100.11 84.28 100.689 84.4293 101.202 84.728C101.716 85.0267 102.122 85.4373 102.42 85.96C102.728 86.4733 102.882 87.0473 102.882 87.682C102.882 88.3353 102.728 88.9233 102.42 89.446C102.122 89.9593 101.716 90.37 101.202 90.678C100.689 90.986 100.11 91.14 99.4662 91.14ZM99.4662 90.188C99.9329 90.188 100.344 90.0807 100.698 89.866C101.062 89.6513 101.347 89.3527 101.552 88.97C101.767 88.5873 101.874 88.158 101.874 87.682C101.874 87.206 101.767 86.786 101.552 86.422C101.347 86.0487 101.062 85.7547 100.698 85.54C100.344 85.3253 99.9329 85.218 99.4662 85.218C99.0089 85.218 98.5982 85.3253 98.2342 85.54C97.8702 85.7547 97.5856 86.0487 97.3802 86.422C97.1749 86.786 97.0722 87.206 97.0722 87.682C97.0722 88.1673 97.1749 88.6013 97.3802 88.984C97.5856 89.3573 97.8702 89.6513 98.2342 89.866C98.5982 90.0807 99.0089 90.188 99.4662 90.188ZM109.229 91V87.136C109.229 86.5573 109.057 86.0907 108.711 85.736C108.375 85.372 107.927 85.19 107.367 85.19C106.985 85.19 106.649 85.274 106.359 85.442C106.07 85.61 105.841 85.8387 105.673 86.128C105.505 86.4173 105.421 86.7487 105.421 87.122L104.973 86.87C104.973 86.3753 105.09 85.932 105.323 85.54C105.557 85.148 105.869 84.84 106.261 84.616C106.663 84.392 107.12 84.28 107.633 84.28C108.137 84.28 108.585 84.3967 108.977 84.63C109.369 84.854 109.673 85.1667 109.887 85.568C110.111 85.9693 110.223 86.436 110.223 86.968V91H109.229ZM104.441 91V81.088H105.421V91H104.441ZM116.845 91V87.136C116.845 86.5573 116.672 86.0907 116.327 85.736C115.991 85.372 115.543 85.19 114.983 85.19C114.6 85.19 114.264 85.274 113.975 85.442C113.685 85.61 113.457 85.8387 113.289 86.128C113.121 86.4173 113.037 86.7487 113.037 87.122L112.589 86.87C112.589 86.3753 112.705 85.932 112.939 85.54C113.172 85.148 113.485 84.84 113.877 84.616C114.278 84.392 114.735 84.28 115.249 84.28C115.753 84.28 116.201 84.4013 116.593 84.644C116.985 84.8867 117.288 85.2133 117.503 85.624C117.727 86.0347 117.839 86.4827 117.839 86.968V91H116.845ZM112.057 91V84.42H113.037V91H112.057ZM125.578 91.14C124.831 91.14 124.187 91 123.646 90.72C123.104 90.4307 122.628 90.0293 122.218 89.516L122.932 88.816C123.258 89.2733 123.636 89.614 124.066 89.838C124.504 90.062 125.022 90.174 125.62 90.174C126.236 90.174 126.735 90.034 127.118 89.754C127.5 89.474 127.692 89.0867 127.692 88.592C127.692 88.2093 127.603 87.8967 127.426 87.654C127.248 87.402 127.015 87.2013 126.726 87.052C126.446 86.8933 126.133 86.7533 125.788 86.632C125.442 86.5107 125.097 86.3847 124.752 86.254C124.416 86.114 124.103 85.9413 123.814 85.736C123.524 85.5307 123.291 85.2693 123.114 84.952C122.946 84.6347 122.862 84.2287 122.862 83.734C122.862 83.2113 122.988 82.7633 123.24 82.39C123.492 82.0167 123.837 81.732 124.276 81.536C124.714 81.3307 125.214 81.228 125.774 81.228C126.399 81.228 126.954 81.3493 127.44 81.592C127.934 81.8347 128.345 82.1613 128.672 82.572L127.972 83.272C127.673 82.9173 127.346 82.6467 126.992 82.46C126.637 82.2733 126.222 82.18 125.746 82.18C125.186 82.18 124.738 82.3107 124.402 82.572C124.066 82.8333 123.898 83.1973 123.898 83.664C123.898 84.028 123.982 84.322 124.15 84.546C124.327 84.77 124.56 84.9567 124.85 85.106C125.139 85.2553 125.452 85.3907 125.788 85.512C126.133 85.624 126.478 85.75 126.824 85.89C127.169 86.03 127.482 86.2073 127.762 86.422C128.051 86.6367 128.284 86.912 128.462 87.248C128.639 87.5747 128.728 87.9947 128.728 88.508C128.728 89.3387 128.443 89.9873 127.874 90.454C127.314 90.9113 126.548 91.14 125.578 91.14ZM130.432 91V84.42H131.412V91H130.432ZM134.954 91V86.968C134.954 86.4267 134.79 85.9973 134.464 85.68C134.137 85.3533 133.726 85.19 133.232 85.19C132.896 85.19 132.588 85.2647 132.308 85.414C132.037 85.554 131.818 85.7547 131.65 86.016C131.491 86.2773 131.412 86.59 131.412 86.954L130.964 86.772C130.964 86.268 131.076 85.8293 131.3 85.456C131.524 85.0827 131.822 84.7933 132.196 84.588C132.578 84.3827 133.008 84.28 133.484 84.28C133.95 84.28 134.366 84.3827 134.73 84.588C135.103 84.7933 135.397 85.0827 135.612 85.456C135.836 85.8293 135.948 86.2727 135.948 86.786V91H134.954ZM139.49 91V86.968C139.49 86.4267 139.326 85.9973 139 85.68C138.673 85.3533 138.258 85.19 137.754 85.19C137.427 85.19 137.124 85.2647 136.844 85.414C136.573 85.554 136.354 85.7547 136.186 86.016C136.027 86.2773 135.948 86.59 135.948 86.954L135.36 86.772C135.388 86.268 135.518 85.8293 135.752 85.456C135.994 85.0827 136.307 84.7933 136.69 84.588C137.082 84.3827 137.511 84.28 137.978 84.28C138.444 84.28 138.864 84.3827 139.238 84.588C139.62 84.7933 139.919 85.0827 140.134 85.456C140.358 85.8293 140.47 86.2727 140.47 86.786V91H139.49ZM142.312 91V84.42H143.306V91H142.312ZM142.802 82.992C142.616 82.992 142.457 82.9267 142.326 82.796C142.196 82.656 142.13 82.4927 142.13 82.306C142.13 82.11 142.196 81.9467 142.326 81.816C142.457 81.6853 142.616 81.62 142.802 81.62C143.008 81.62 143.171 81.6853 143.292 81.816C143.423 81.9467 143.488 82.11 143.488 82.306C143.488 82.4927 143.423 82.656 143.292 82.796C143.171 82.9267 143.008 82.992 142.802 82.992ZM146.315 91V81.648H147.295V91H146.315ZM144.649 85.302V84.42H148.947V85.302H144.649ZM155.085 91V87.136C155.085 86.5573 154.912 86.0907 154.567 85.736C154.231 85.372 153.783 85.19 153.223 85.19C152.84 85.19 152.504 85.274 152.215 85.442C151.925 85.61 151.697 85.8387 151.529 86.128C151.361 86.4173 151.277 86.7487 151.277 87.122L150.829 86.87C150.829 86.3753 150.945 85.932 151.179 85.54C151.412 85.148 151.725 84.84 152.117 84.616C152.518 84.392 152.975 84.28 153.489 84.28C153.993 84.28 154.441 84.3967 154.833 84.63C155.225 84.854 155.528 85.1667 155.743 85.568C155.967 85.9693 156.079 86.436 156.079 86.968V91H155.085ZM150.297 91V81.088H151.277V91H150.297ZM89.7356 109.14C89.1942 109.14 88.7182 109.037 88.3076 108.832C87.9062 108.617 87.5609 108.328 87.2716 107.964L87.9996 107.292C88.2049 107.572 88.4476 107.787 88.7276 107.936C89.0076 108.076 89.3342 108.146 89.7076 108.146C90.0436 108.146 90.3516 108.076 90.6316 107.936C90.9116 107.787 91.1356 107.558 91.3036 107.25C91.4716 106.942 91.5556 106.555 91.5556 106.088V99.368H92.5916V106.074C92.5916 106.718 92.4609 107.269 92.1996 107.726C91.9476 108.183 91.6022 108.533 91.1636 108.776C90.7342 109.019 90.2582 109.14 89.7356 109.14ZM97.5492 109.14C96.9239 109.14 96.3639 108.991 95.8692 108.692C95.3746 108.384 94.9826 107.973 94.6932 107.46C94.4132 106.947 94.2732 106.368 94.2732 105.724C94.2732 105.071 94.4132 104.487 94.6932 103.974C94.9826 103.451 95.3746 103.041 95.8692 102.742C96.3639 102.434 96.9192 102.28 97.5352 102.28C98.0392 102.28 98.4872 102.383 98.8792 102.588C99.2806 102.784 99.6026 103.064 99.8452 103.428C100.097 103.783 100.251 104.198 100.307 104.674V106.732C100.251 107.208 100.097 107.628 99.8452 107.992C99.6026 108.356 99.2806 108.641 98.8792 108.846C98.4872 109.042 98.0439 109.14 97.5492 109.14ZM97.7032 108.202C98.3846 108.202 98.9306 107.973 99.3412 107.516C99.7612 107.059 99.9712 106.457 99.9712 105.71C99.9712 105.215 99.8732 104.781 99.6772 104.408C99.4906 104.025 99.2246 103.731 98.8792 103.526C98.5432 103.311 98.1466 103.204 97.6892 103.204C97.2226 103.204 96.8072 103.311 96.4432 103.526C96.0886 103.741 95.8039 104.039 95.5892 104.422C95.3839 104.795 95.2812 105.225 95.2812 105.71C95.2812 106.195 95.3839 106.625 95.5892 106.998C95.8039 107.371 96.0932 107.665 96.4572 107.88C96.8212 108.095 97.2366 108.202 97.7032 108.202ZM99.9152 109V107.236L100.111 105.612L99.9152 104.03V102.42H100.895V109H99.9152ZM107.671 109V105.136C107.671 104.557 107.498 104.091 107.153 103.736C106.817 103.372 106.369 103.19 105.809 103.19C105.426 103.19 105.09 103.274 104.801 103.442C104.511 103.61 104.283 103.839 104.115 104.128C103.947 104.417 103.863 104.749 103.863 105.122L103.415 104.87C103.415 104.375 103.531 103.932 103.765 103.54C103.998 103.148 104.311 102.84 104.703 102.616C105.104 102.392 105.561 102.28 106.075 102.28C106.579 102.28 107.027 102.401 107.419 102.644C107.811 102.887 108.114 103.213 108.329 103.624C108.553 104.035 108.665 104.483 108.665 104.968V109H107.671ZM102.883 109V102.42H103.863V109H102.883ZM113.536 109.14C112.873 109.14 112.281 108.991 111.758 108.692C111.235 108.393 110.82 107.983 110.512 107.46C110.213 106.937 110.064 106.349 110.064 105.696C110.064 105.052 110.213 104.473 110.512 103.96C110.811 103.437 111.217 103.027 111.73 102.728C112.243 102.429 112.817 102.28 113.452 102.28C114.049 102.28 114.577 102.415 115.034 102.686C115.501 102.957 115.865 103.335 116.126 103.82C116.397 104.296 116.532 104.847 116.532 105.472C116.532 105.547 116.527 105.635 116.518 105.738C116.509 105.831 116.49 105.943 116.462 106.074H110.764V105.234H115.93L115.58 105.542C115.589 105.057 115.505 104.641 115.328 104.296C115.16 103.941 114.913 103.671 114.586 103.484C114.269 103.288 113.881 103.19 113.424 103.19C112.948 103.19 112.533 103.293 112.178 103.498C111.823 103.703 111.543 103.993 111.338 104.366C111.142 104.73 111.044 105.164 111.044 105.668C111.044 106.172 111.147 106.615 111.352 106.998C111.567 107.381 111.861 107.679 112.234 107.894C112.617 108.109 113.055 108.216 113.55 108.216C113.951 108.216 114.32 108.146 114.656 108.006C114.992 107.857 115.277 107.637 115.51 107.348L116.14 107.992C115.832 108.356 115.449 108.641 114.992 108.846C114.544 109.042 114.059 109.14 113.536 109.14ZM123.937 109.14C123.19 109.14 122.546 109 122.005 108.72C121.464 108.431 120.988 108.029 120.577 107.516L121.291 106.816C121.618 107.273 121.996 107.614 122.425 107.838C122.864 108.062 123.382 108.174 123.979 108.174C124.595 108.174 125.094 108.034 125.477 107.754C125.86 107.474 126.051 107.087 126.051 106.592C126.051 106.209 125.962 105.897 125.785 105.654C125.608 105.402 125.374 105.201 125.085 105.052C124.805 104.893 124.492 104.753 124.147 104.632C123.802 104.511 123.456 104.385 123.111 104.254C122.775 104.114 122.462 103.941 122.173 103.736C121.884 103.531 121.65 103.269 121.473 102.952C121.305 102.635 121.221 102.229 121.221 101.734C121.221 101.211 121.347 100.763 121.599 100.39C121.851 100.017 122.196 99.732 122.635 99.536C123.074 99.3307 123.573 99.228 124.133 99.228C124.758 99.228 125.314 99.3493 125.799 99.592C126.294 99.8347 126.704 100.161 127.031 100.572L126.331 101.272C126.032 100.917 125.706 100.647 125.351 100.46C124.996 100.273 124.581 100.18 124.105 100.18C123.545 100.18 123.097 100.311 122.761 100.572C122.425 100.833 122.257 101.197 122.257 101.664C122.257 102.028 122.341 102.322 122.509 102.546C122.686 102.77 122.92 102.957 123.209 103.106C123.498 103.255 123.811 103.391 124.147 103.512C124.492 103.624 124.838 103.75 125.183 103.89C125.528 104.03 125.841 104.207 126.121 104.422C126.41 104.637 126.644 104.912 126.821 105.248C126.998 105.575 127.087 105.995 127.087 106.508C127.087 107.339 126.802 107.987 126.233 108.454C125.673 108.911 124.908 109.14 123.937 109.14ZM128.791 109V102.42H129.771V109H128.791ZM133.313 109V104.968C133.313 104.427 133.15 103.997 132.823 103.68C132.496 103.353 132.086 103.19 131.591 103.19C131.255 103.19 130.947 103.265 130.667 103.414C130.396 103.554 130.177 103.755 130.009 104.016C129.85 104.277 129.771 104.59 129.771 104.954L129.323 104.772C129.323 104.268 129.435 103.829 129.659 103.456C129.883 103.083 130.182 102.793 130.555 102.588C130.938 102.383 131.367 102.28 131.843 102.28C132.31 102.28 132.725 102.383 133.089 102.588C133.462 102.793 133.756 103.083 133.971 103.456C134.195 103.829 134.307 104.273 134.307 104.786V109H133.313ZM137.849 109V104.968C137.849 104.427 137.686 103.997 137.359 103.68C137.032 103.353 136.617 103.19 136.113 103.19C135.786 103.19 135.483 103.265 135.203 103.414C134.932 103.554 134.713 103.755 134.545 104.016C134.386 104.277 134.307 104.59 134.307 104.954L133.719 104.772C133.747 104.268 133.878 103.829 134.111 103.456C134.354 103.083 134.666 102.793 135.049 102.588C135.441 102.383 135.87 102.28 136.337 102.28C136.804 102.28 137.224 102.383 137.597 102.588C137.98 102.793 138.278 103.083 138.493 103.456C138.717 103.829 138.829 104.273 138.829 104.786V109H137.849ZM140.672 109V102.42H141.666V109H140.672ZM141.162 100.992C140.975 100.992 140.816 100.927 140.686 100.796C140.555 100.656 140.49 100.493 140.49 100.306C140.49 100.11 140.555 99.9467 140.686 99.816C140.816 99.6853 140.975 99.62 141.162 99.62C141.367 99.62 141.53 99.6853 141.652 99.816C141.782 99.9467 141.848 100.11 141.848 100.306C141.848 100.493 141.782 100.656 141.652 100.796C141.53 100.927 141.367 100.992 141.162 100.992ZM144.674 109V99.648H145.654V109H144.674ZM143.008 103.302V102.42H147.306V103.302H143.008ZM153.444 109V105.136C153.444 104.557 153.271 104.091 152.926 103.736C152.59 103.372 152.142 103.19 151.582 103.19C151.199 103.19 150.863 103.274 150.574 103.442C150.285 103.61 150.056 103.839 149.888 104.128C149.72 104.417 149.636 104.749 149.636 105.122L149.188 104.87C149.188 104.375 149.305 103.932 149.538 103.54C149.771 103.148 150.084 102.84 150.476 102.616C150.877 102.392 151.335 102.28 151.848 102.28C152.352 102.28 152.8 102.397 153.192 102.63C153.584 102.854 153.887 103.167 154.102 103.568C154.326 103.969 154.438 104.436 154.438 104.968V109H153.444ZM148.656 109V99.088H149.636V109H148.656Z" fill="black"/>
</g>
<defs>
<filter id="filter0_d_219_1198" x="0" y="0" width="177" height="137" filterUnits="userSpaceOnUse" color-interpolation-filters="sRGB">
<feFlood flood-opacity="0" result="BackgroundImageFix"/>
<feColorMatrix in="SourceAlpha" type="matrix" values="0 0 0 0 0 0 0 0 0 0 0 0 0 0 0 0 0 0 127 0" result="hardAlpha"/>
<feOffset dx="-4" dy="4"/>
<feGaussianBlur stdDeviation="5"/>
<feComposite in2="hardAlpha" operator="out"/>
<feColorMatrix type="matrix" values="0 0 0 0 0 0 0 0 0 0 0 0 0 0 0 0 0 0 0.1 0"/>
<feBlend mode="normal" in2="BackgroundImageFix" result="effect1_dropShadow_219_1198"/>
<feBlend mode="normal" in="SourceGraphic" in2="effect1_dropShadow_219_1198" result="shape"/>
</filter>
</defs>
</svg>
