<svg width="177" height="137" viewBox="0 0 177 137" fill="none" xmlns="http://www.w3.org/2000/svg">
<g filter="url(#filter0_d_219_1202)">
<rect x="14" y="6" width="157" height="117" rx="10" fill="white"/>
<path d="M72.146 34.18C71.246 34.18 70.412 34.018 69.644 33.694C68.876 33.358 68.204 32.896 67.628 32.308C67.064 31.72 66.626 31.036 66.314 30.256C66.002 29.476 65.846 28.642 65.846 27.754C65.846 26.854 66.002 26.014 66.314 25.234C66.626 24.454 67.064 23.776 67.628 23.2C68.204 22.612 68.87 22.156 69.626 21.832C70.394 21.496 71.228 21.328 72.128 21.328C73.112 21.328 73.976 21.496 74.72 21.832C75.464 22.168 76.124 22.624 76.7 23.2L75.53 24.37C75.134 23.926 74.648 23.578 74.072 23.326C73.508 23.074 72.86 22.948 72.128 22.948C71.468 22.948 70.862 23.068 70.31 23.308C69.758 23.536 69.278 23.866 68.87 24.298C68.462 24.73 68.144 25.24 67.916 25.828C67.7 26.416 67.592 27.058 67.592 27.754C67.592 28.45 67.7 29.092 67.916 29.68C68.144 30.268 68.462 30.778 68.87 31.21C69.278 31.642 69.758 31.978 70.31 32.218C70.862 32.446 71.468 32.56 72.128 32.56C72.908 32.56 73.586 32.434 74.162 32.182C74.738 31.918 75.224 31.564 75.62 31.12L76.79 32.272C76.214 32.872 75.536 33.34 74.756 33.676C73.988 34.012 73.118 34.18 72.146 34.18ZM78.5986 34V25.45H80.2186V34H78.5986ZM79.4086 23.74C79.1086 23.74 78.8626 23.644 78.6706 23.452C78.4786 23.248 78.3826 22.996 78.3826 22.696C78.3826 22.408 78.4786 22.168 78.6706 21.976C78.8626 21.772 79.1086 21.67 79.4086 21.67C79.7086 21.67 79.9546 21.772 80.1466 21.976C80.3386 22.168 80.4346 22.408 80.4346 22.696C80.4346 22.996 80.3386 23.248 80.1466 23.452C79.9546 23.644 79.7086 23.74 79.4086 23.74ZM87.106 34.18C86.458 34.18 85.87 34.048 85.342 33.784C84.826 33.508 84.412 33.13 84.1 32.65C83.788 32.17 83.614 31.624 83.578 31.012V28.438C83.614 27.814 83.788 27.268 84.1 26.8C84.424 26.32 84.844 25.948 85.36 25.684C85.888 25.408 86.47 25.27 87.106 25.27C87.886 25.27 88.588 25.468 89.212 25.864C89.848 26.26 90.346 26.794 90.706 27.466C91.066 28.138 91.246 28.894 91.246 29.734C91.246 30.574 91.066 31.33 90.706 32.002C90.346 32.674 89.848 33.208 89.212 33.604C88.588 33.988 87.886 34.18 87.106 34.18ZM82.606 37.582V25.45H84.226V27.7L83.92 29.77L84.226 31.858V37.582H82.606ZM86.836 32.65C87.376 32.65 87.85 32.524 88.258 32.272C88.666 32.02 88.99 31.678 89.23 31.246C89.47 30.802 89.59 30.292 89.59 29.716C89.59 29.152 89.47 28.648 89.23 28.204C88.99 27.76 88.666 27.418 88.258 27.178C87.85 26.926 87.382 26.8 86.854 26.8C86.314 26.8 85.84 26.926 85.432 27.178C85.024 27.418 84.706 27.76 84.478 28.204C84.25 28.648 84.136 29.158 84.136 29.734C84.136 30.298 84.244 30.802 84.46 31.246C84.688 31.678 85.006 32.02 85.414 32.272C85.834 32.524 86.308 32.65 86.836 32.65ZM99.1305 34V29.014C99.1305 28.366 98.9265 27.832 98.5185 27.412C98.1105 26.992 97.5825 26.782 96.9345 26.782C96.5025 26.782 96.1185 26.878 95.7825 27.07C95.4465 27.262 95.1825 27.526 94.9905 27.862C94.7985 28.198 94.7025 28.582 94.7025 29.014L94.0365 28.636C94.0365 27.988 94.1805 27.412 94.4685 26.908C94.7565 26.404 95.1585 26.008 95.6745 25.72C96.1905 25.42 96.7725 25.27 97.4205 25.27C98.0685 25.27 98.6385 25.414 99.1305 25.702C99.6345 25.99 100.031 26.392 100.319 26.908C100.607 27.424 100.751 28.018 100.751 28.69V34H99.1305ZM93.0825 34V21.148H94.7025V34H93.0825ZM106.904 34.18C106.052 34.18 105.284 33.988 104.6 33.604C103.916 33.208 103.376 32.674 102.98 32.002C102.584 31.33 102.386 30.568 102.386 29.716C102.386 28.876 102.578 28.12 102.962 27.448C103.358 26.776 103.886 26.248 104.546 25.864C105.218 25.468 105.968 25.27 106.796 25.27C107.588 25.27 108.284 25.45 108.884 25.81C109.496 26.17 109.97 26.668 110.306 27.304C110.654 27.94 110.828 28.66 110.828 29.464C110.828 29.584 110.822 29.716 110.81 29.86C110.798 29.992 110.774 30.148 110.738 30.328H103.52V28.978H109.874L109.28 29.5C109.28 28.924 109.178 28.438 108.974 28.042C108.77 27.634 108.482 27.322 108.11 27.106C107.738 26.878 107.288 26.764 106.76 26.764C106.208 26.764 105.722 26.884 105.302 27.124C104.882 27.364 104.558 27.7 104.33 28.132C104.102 28.564 103.988 29.074 103.988 29.662C103.988 30.262 104.108 30.79 104.348 31.246C104.588 31.69 104.93 32.038 105.374 32.29C105.818 32.53 106.328 32.65 106.904 32.65C107.384 32.65 107.822 32.566 108.218 32.398C108.626 32.23 108.974 31.978 109.262 31.642L110.306 32.704C109.898 33.184 109.394 33.55 108.794 33.802C108.206 34.054 107.576 34.18 106.904 34.18ZM112.594 34V25.45H114.214V34H112.594ZM114.214 29.122L113.602 28.852C113.602 27.76 113.854 26.89 114.358 26.242C114.862 25.594 115.588 25.27 116.536 25.27C116.968 25.27 117.358 25.348 117.706 25.504C118.054 25.648 118.378 25.894 118.678 26.242L117.616 27.34C117.436 27.148 117.238 27.01 117.022 26.926C116.806 26.842 116.554 26.8 116.266 26.8C115.666 26.8 115.174 26.992 114.79 27.376C114.406 27.76 114.214 28.342 114.214 29.122Z" fill="black"/>
<path d="M28.746 63.14C28.046 63.14 27.4207 62.986 26.87 62.678C26.3287 62.3607 25.8993 61.9313 25.582 61.39C25.2647 60.8393 25.106 60.2233 25.106 59.542V53.368H26.142V59.486C26.142 60.0273 26.254 60.4987 26.478 60.9C26.702 61.3013 27.01 61.6093 27.402 61.824C27.8033 62.0387 28.2513 62.146 28.746 62.146C29.2407 62.146 29.6793 62.0387 30.062 61.824C30.454 61.6093 30.762 61.306 30.986 60.914C31.2193 60.5127 31.336 60.0413 31.336 59.5V53.368H32.358V59.556C32.358 60.2373 32.1993 60.8487 31.882 61.39C31.574 61.9313 31.1447 62.3607 30.594 62.678C30.0527 62.986 29.4367 63.14 28.746 63.14ZM39.2429 63V59.136C39.2429 58.5573 39.0703 58.0907 38.7249 57.736C38.3889 57.372 37.9409 57.19 37.3809 57.19C36.9983 57.19 36.6623 57.274 36.3729 57.442C36.0836 57.61 35.8549 57.8387 35.6869 58.128C35.5189 58.4173 35.4349 58.7487 35.4349 59.122L34.9869 58.87C34.9869 58.3753 35.1036 57.932 35.3369 57.54C35.5703 57.148 35.8829 56.84 36.2749 56.616C36.6763 56.392 37.1336 56.28 37.6469 56.28C38.1509 56.28 38.5989 56.4013 38.9909 56.644C39.3829 56.8867 39.6863 57.2133 39.9009 57.624C40.1249 58.0347 40.2369 58.4827 40.2369 58.968V63H39.2429ZM34.4549 63V56.42H35.4349V63H34.4549ZM42.0702 63V56.42H43.0642V63H42.0702ZM42.5602 54.992C42.3735 54.992 42.2148 54.9267 42.0842 54.796C41.9535 54.656 41.8882 54.4927 41.8882 54.306C41.8882 54.11 41.9535 53.9467 42.0842 53.816C42.2148 53.6853 42.3735 53.62 42.5602 53.62C42.7655 53.62 42.9288 53.6853 43.0502 53.816C43.1808 53.9467 43.2462 54.11 43.2462 54.306C43.2462 54.4927 43.1808 54.656 43.0502 54.796C42.9288 54.9267 42.7655 54.992 42.5602 54.992ZM47.3466 63L44.3086 56.42H45.4006L47.9626 62.174H47.3466L49.9226 56.42H50.9866L47.9206 63H47.3466ZM54.9656 63.14C54.3029 63.14 53.7103 62.9907 53.1876 62.692C52.6649 62.3933 52.2496 61.9827 51.9416 61.46C51.6429 60.9373 51.4936 60.3493 51.4936 59.696C51.4936 59.052 51.6429 58.4733 51.9416 57.96C52.2403 57.4373 52.6463 57.0267 53.1596 56.728C53.6729 56.4293 54.2469 56.28 54.8816 56.28C55.4789 56.28 56.0063 56.4153 56.4636 56.686C56.9303 56.9567 57.2943 57.3347 57.5556 57.82C57.8263 58.296 57.9616 58.8467 57.9616 59.472C57.9616 59.5467 57.9569 59.6353 57.9476 59.738C57.9383 59.8313 57.9196 59.9433 57.8916 60.074H52.1936V59.234H57.3596L57.0096 59.542C57.0189 59.0567 56.9349 58.6413 56.7576 58.296C56.5896 57.9413 56.3423 57.6707 56.0156 57.484C55.6983 57.288 55.3109 57.19 54.8536 57.19C54.3776 57.19 53.9623 57.2927 53.6076 57.498C53.2529 57.7033 52.9729 57.9927 52.7676 58.366C52.5716 58.73 52.4736 59.164 52.4736 59.668C52.4736 60.172 52.5763 60.6153 52.7816 60.998C52.9963 61.3807 53.2903 61.6793 53.6636 61.894C54.0463 62.1087 54.4849 62.216 54.9796 62.216C55.3809 62.216 55.7496 62.146 56.0856 62.006C56.4216 61.8567 56.7063 61.6373 56.9396 61.348L57.5696 61.992C57.2616 62.356 56.8789 62.6407 56.4216 62.846C55.9736 63.042 55.4883 63.14 54.9656 63.14ZM59.4608 63V56.42H60.4408V63H59.4608ZM60.4408 59.164L60.0348 58.982C60.0348 58.1513 60.2355 57.4933 60.6368 57.008C61.0475 56.5227 61.6075 56.28 62.3168 56.28C62.6435 56.28 62.9421 56.3407 63.2128 56.462C63.4835 56.574 63.7355 56.756 63.9688 57.008L63.3248 57.694C63.1661 57.5167 62.9888 57.3907 62.7928 57.316C62.6061 57.2413 62.3915 57.204 62.1488 57.204C61.6448 57.204 61.2341 57.372 60.9168 57.708C60.5995 58.0347 60.4408 58.52 60.4408 59.164ZM66.8772 63.14C66.5225 63.14 66.1819 63.0933 65.8552 63C65.5285 62.8973 65.2299 62.7573 64.9592 62.58C64.6979 62.4027 64.4692 62.1927 64.2732 61.95L64.9032 61.306C65.1645 61.6233 65.4585 61.8613 65.7852 62.02C66.1212 62.1693 66.4945 62.244 66.9052 62.244C67.3439 62.244 67.6845 62.16 67.9272 61.992C68.1792 61.824 68.3052 61.5907 68.3052 61.292C68.3052 61.012 68.2165 60.7927 68.0392 60.634C67.8619 60.4753 67.6332 60.3493 67.3532 60.256C67.0825 60.1627 66.7932 60.074 66.4852 59.99C66.1772 59.8967 65.8832 59.7847 65.6032 59.654C65.3232 59.514 65.0945 59.3227 64.9172 59.08C64.7492 58.8373 64.6652 58.52 64.6652 58.128C64.6652 57.7547 64.7539 57.4327 64.9312 57.162C65.1179 56.882 65.3792 56.6673 65.7152 56.518C66.0605 56.3593 66.4665 56.28 66.9332 56.28C67.4279 56.28 67.8759 56.3687 68.2772 56.546C68.6785 56.7233 69.0005 56.9847 69.2432 57.33L68.6132 57.96C68.4172 57.708 68.1699 57.5167 67.8712 57.386C67.5819 57.246 67.2552 57.176 66.8912 57.176C66.4712 57.176 66.1492 57.26 65.9252 57.428C65.7105 57.5867 65.6032 57.7967 65.6032 58.058C65.6032 58.31 65.6919 58.5107 65.8692 58.66C66.0465 58.8 66.2705 58.9167 66.5412 59.01C66.8212 59.094 67.1152 59.1827 67.4232 59.276C67.7312 59.36 68.0252 59.4767 68.3052 59.626C68.5852 59.766 68.8092 59.962 68.9772 60.214C69.1545 60.4567 69.2432 60.788 69.2432 61.208C69.2432 61.796 69.0285 62.2673 68.5992 62.622C68.1792 62.9673 67.6052 63.14 66.8772 63.14ZM70.7948 63V56.42H71.7888V63H70.7948ZM71.2848 54.992C71.0981 54.992 70.9394 54.9267 70.8088 54.796C70.6781 54.656 70.6128 54.4927 70.6128 54.306C70.6128 54.11 70.6781 53.9467 70.8088 53.816C70.9394 53.6853 71.0981 53.62 71.2848 53.62C71.4901 53.62 71.6534 53.6853 71.7748 53.816C71.9054 53.9467 71.9708 54.11 71.9708 54.306C71.9708 54.4927 71.9054 54.656 71.7748 54.796C71.6534 54.9267 71.4901 54.992 71.2848 54.992ZM74.7973 63V53.648H75.7773V63H74.7973ZM73.1313 57.302V56.42H77.4293V57.302H73.1313ZM80.9772 63.028L78.0932 56.42H79.1712L81.4952 61.936H81.0892L83.5392 56.42H84.6312L81.5372 63.028H80.9772ZM79.1852 65.772L80.9912 62.034L81.5372 63.028L80.2632 65.772H79.1852ZM86.6205 63.14C86.3871 63.14 86.1958 63.0607 86.0465 62.902C85.9065 62.7433 85.8365 62.5567 85.8365 62.342C85.8365 62.1087 85.9065 61.9173 86.0465 61.768C86.1958 61.6093 86.3871 61.53 86.6205 61.53C86.8445 61.53 87.0311 61.6093 87.1805 61.768C87.3391 61.9173 87.4185 62.1087 87.4185 62.342C87.4185 62.5567 87.3391 62.7433 87.1805 62.902C87.0311 63.0607 86.8445 63.14 86.6205 63.14ZM86.6205 58.73C86.3871 58.73 86.1958 58.6507 86.0465 58.492C85.9065 58.3333 85.8365 58.1467 85.8365 57.932C85.8365 57.6987 85.9065 57.5073 86.0465 57.358C86.1958 57.2087 86.3871 57.134 86.6205 57.134C86.8445 57.134 87.0311 57.2087 87.1805 57.358C87.3391 57.5073 87.4185 57.6987 87.4185 57.932C87.4185 58.1467 87.3391 58.3333 87.1805 58.492C87.0311 58.6507 86.8445 58.73 86.6205 58.73ZM92.648 63V53.368H93.67V63H92.648ZM98.962 63V53.368H99.984V63H98.962ZM93.32 58.492V57.554H99.242V58.492H93.32ZM105.069 63.14C104.443 63.14 103.883 62.9907 103.389 62.692C102.894 62.384 102.502 61.9733 102.213 61.46C101.933 60.9467 101.793 60.368 101.793 59.724C101.793 59.0707 101.933 58.4873 102.213 57.974C102.502 57.4513 102.894 57.0407 103.389 56.742C103.883 56.434 104.439 56.28 105.055 56.28C105.559 56.28 106.007 56.3827 106.399 56.588C106.8 56.784 107.122 57.064 107.365 57.428C107.617 57.7827 107.771 58.198 107.827 58.674V60.732C107.771 61.208 107.617 61.628 107.365 61.992C107.122 62.356 106.8 62.6407 106.399 62.846C106.007 63.042 105.563 63.14 105.069 63.14ZM105.223 62.202C105.904 62.202 106.45 61.9733 106.861 61.516C107.281 61.0587 107.491 60.4567 107.491 59.71C107.491 59.2153 107.393 58.7813 107.197 58.408C107.01 58.0253 106.744 57.7313 106.399 57.526C106.063 57.3113 105.666 57.204 105.209 57.204C104.742 57.204 104.327 57.3113 103.963 57.526C103.608 57.7407 103.323 58.0393 103.109 58.422C102.903 58.7953 102.801 59.2247 102.801 59.71C102.801 60.1953 102.903 60.6247 103.109 60.998C103.323 61.3713 103.613 61.6653 103.977 61.88C104.341 62.0947 104.756 62.202 105.223 62.202ZM107.435 63V61.236L107.631 59.612L107.435 58.03V56.42H108.415V63H107.435ZM110.402 63V56.42H111.382V63H110.402ZM111.382 59.164L110.976 58.982C110.976 58.1513 111.177 57.4933 111.578 57.008C111.989 56.5227 112.549 56.28 113.258 56.28C113.585 56.28 113.884 56.3407 114.154 56.462C114.425 56.574 114.677 56.756 114.91 57.008L114.266 57.694C114.108 57.5167 113.93 57.3907 113.734 57.316C113.548 57.2413 113.333 57.204 113.09 57.204C112.586 57.204 112.176 57.372 111.858 57.708C111.541 58.0347 111.382 58.52 111.382 59.164ZM118.099 63L115.061 56.42H116.153L118.715 62.174H118.099L120.675 56.42H121.739L118.673 63H118.099ZM125.536 63.14C124.91 63.14 124.35 62.9907 123.856 62.692C123.361 62.384 122.969 61.9733 122.68 61.46C122.4 60.9467 122.26 60.368 122.26 59.724C122.26 59.0707 122.4 58.4873 122.68 57.974C122.969 57.4513 123.361 57.0407 123.856 56.742C124.35 56.434 124.906 56.28 125.522 56.28C126.026 56.28 126.474 56.3827 126.866 56.588C127.267 56.784 127.589 57.064 127.832 57.428C128.084 57.7827 128.238 58.198 128.294 58.674V60.732C128.238 61.208 128.084 61.628 127.832 61.992C127.589 62.356 127.267 62.6407 126.866 62.846C126.474 63.042 126.03 63.14 125.536 63.14ZM125.69 62.202C126.371 62.202 126.917 61.9733 127.328 61.516C127.748 61.0587 127.958 60.4567 127.958 59.71C127.958 59.2153 127.86 58.7813 127.664 58.408C127.477 58.0253 127.211 57.7313 126.866 57.526C126.53 57.3113 126.133 57.204 125.676 57.204C125.209 57.204 124.794 57.3113 124.43 57.526C124.075 57.7407 123.79 58.0393 123.576 58.422C123.37 58.7953 123.268 59.2247 123.268 59.71C123.268 60.1953 123.37 60.6247 123.576 60.998C123.79 61.3713 124.08 61.6653 124.444 61.88C124.808 62.0947 125.223 62.202 125.69 62.202ZM127.902 63V61.236L128.098 59.612L127.902 58.03V56.42H128.882V63H127.902ZM130.869 63V56.42H131.849V63H130.869ZM131.849 59.164L131.443 58.982C131.443 58.1513 131.644 57.4933 132.045 57.008C132.456 56.5227 133.016 56.28 133.725 56.28C134.052 56.28 134.35 56.3407 134.621 56.462C134.892 56.574 135.144 56.756 135.377 57.008L134.733 57.694C134.574 57.5167 134.397 57.3907 134.201 57.316C134.014 57.2413 133.8 57.204 133.557 57.204C133.053 57.204 132.642 57.372 132.325 57.708C132.008 58.0347 131.849 58.52 131.849 59.164ZM138.987 63.14C138.381 63.14 137.835 62.9907 137.349 62.692C136.864 62.3933 136.477 61.9873 136.187 61.474C135.907 60.9513 135.767 60.368 135.767 59.724C135.767 59.0707 135.907 58.4873 136.187 57.974C136.477 57.4513 136.864 57.0407 137.349 56.742C137.835 56.434 138.381 56.28 138.987 56.28C139.482 56.28 139.93 56.378 140.331 56.574C140.733 56.77 141.064 57.05 141.325 57.414C141.596 57.7687 141.755 58.1887 141.801 58.674V60.732C141.745 61.208 141.587 61.628 141.325 61.992C141.073 62.3467 140.747 62.6267 140.345 62.832C139.944 63.0373 139.491 63.14 138.987 63.14ZM139.155 62.202C139.613 62.202 140.014 62.0993 140.359 61.894C140.705 61.6793 140.975 61.3853 141.171 61.012C141.367 60.6293 141.465 60.1953 141.465 59.71C141.465 59.2153 141.363 58.7813 141.157 58.408C140.961 58.0347 140.691 57.7407 140.345 57.526C140 57.3113 139.599 57.204 139.141 57.204C138.684 57.204 138.278 57.3113 137.923 57.526C137.569 57.7407 137.289 58.0393 137.083 58.422C136.887 58.7953 136.789 59.2247 136.789 59.71C136.789 60.1953 136.887 60.6293 137.083 61.012C137.289 61.3853 137.569 61.6793 137.923 61.894C138.287 62.0993 138.698 62.202 139.155 62.202ZM142.389 63H141.409V61.236L141.605 59.612L141.409 58.03V53.088H142.389V63Z" fill="black"/>
<path d="M25.232 91V81.368H25.96L30.118 88.186H29.6L33.758 81.368H34.486V91H33.45V83.16L33.688 83.216L30.216 88.914H29.488L26.016 83.216L26.254 83.16V91H25.232ZM39.7351 91.14C39.0725 91.14 38.4798 90.9907 37.9571 90.692C37.4345 90.3933 37.0191 89.9827 36.7111 89.46C36.4125 88.9373 36.2631 88.3493 36.2631 87.696C36.2631 87.052 36.4125 86.4733 36.7111 85.96C37.0098 85.4373 37.4158 85.0267 37.9291 84.728C38.4425 84.4293 39.0165 84.28 39.6511 84.28C40.2485 84.28 40.7758 84.4153 41.2331 84.686C41.6998 84.9567 42.0638 85.3347 42.3251 85.82C42.5958 86.296 42.7311 86.8467 42.7311 87.472C42.7311 87.5467 42.7265 87.6353 42.7171 87.738C42.7078 87.8313 42.6891 87.9433 42.6611 88.074H36.9631V87.234H42.1291L41.7791 87.542C41.7885 87.0567 41.7045 86.6413 41.5271 86.296C41.3591 85.9413 41.1118 85.6707 40.7851 85.484C40.4678 85.288 40.0805 85.19 39.6231 85.19C39.1471 85.19 38.7318 85.2927 38.3771 85.498C38.0225 85.7033 37.7425 85.9927 37.5371 86.366C37.3411 86.73 37.2431 87.164 37.2431 87.668C37.2431 88.172 37.3458 88.6153 37.5511 88.998C37.7658 89.3807 38.0598 89.6793 38.4331 89.894C38.8158 90.1087 39.2545 90.216 39.7491 90.216C40.1505 90.216 40.5191 90.146 40.8551 90.006C41.1911 89.8567 41.4758 89.6373 41.7091 89.348L42.3391 89.992C42.0311 90.356 41.6485 90.6407 41.1911 90.846C40.7431 91.042 40.2578 91.14 39.7351 91.14ZM44.2303 91V84.42H45.2103V91H44.2303ZM48.7523 91V86.968C48.7523 86.4267 48.589 85.9973 48.2623 85.68C47.9357 85.3533 47.525 85.19 47.0303 85.19C46.6943 85.19 46.3863 85.2647 46.1063 85.414C45.8357 85.554 45.6163 85.7547 45.4483 86.016C45.2897 86.2773 45.2103 86.59 45.2103 86.954L44.7623 86.772C44.7623 86.268 44.8743 85.8293 45.0983 85.456C45.3223 85.0827 45.621 84.7933 45.9943 84.588C46.377 84.3827 46.8063 84.28 47.2823 84.28C47.749 84.28 48.1643 84.3827 48.5283 84.588C48.9017 84.7933 49.1957 85.0827 49.4103 85.456C49.6343 85.8293 49.7463 86.2727 49.7463 86.786V91H48.7523ZM53.2883 91V86.968C53.2883 86.4267 53.125 85.9973 52.7983 85.68C52.4717 85.3533 52.0563 85.19 51.5523 85.19C51.2257 85.19 50.9223 85.2647 50.6423 85.414C50.3717 85.554 50.1523 85.7547 49.9843 86.016C49.8257 86.2773 49.7463 86.59 49.7463 86.954L49.1583 86.772C49.1863 86.268 49.317 85.8293 49.5503 85.456C49.793 85.0827 50.1057 84.7933 50.4883 84.588C50.8803 84.3827 51.3097 84.28 51.7763 84.28C52.243 84.28 52.663 84.3827 53.0363 84.588C53.419 84.7933 53.7177 85.0827 53.9323 85.456C54.1563 85.8293 54.2683 86.2727 54.2683 86.786V91H53.2883ZM59.5132 91.14C59.0092 91.14 58.5565 91.0373 58.1552 90.832C57.7539 90.6267 57.4225 90.3467 57.1612 89.992C56.9092 89.628 56.7552 89.208 56.6992 88.732V86.674C56.7552 86.1887 56.9139 85.7687 57.1752 85.414C57.4365 85.05 57.7679 84.77 58.1692 84.574C58.5799 84.378 59.0279 84.28 59.5132 84.28C60.1199 84.28 60.6659 84.434 61.1512 84.742C61.6365 85.0407 62.0192 85.4513 62.2992 85.974C62.5885 86.4873 62.7332 87.0707 62.7332 87.724C62.7332 88.368 62.5932 88.9467 62.3132 89.46C62.0332 89.9733 61.6459 90.384 61.1512 90.692C60.6659 90.9907 60.1199 91.14 59.5132 91.14ZM56.1112 91V81.088H57.0912V86.03L56.8952 87.612L57.0912 89.236V91H56.1112ZM59.3452 90.202C59.8119 90.202 60.2225 90.0993 60.5772 89.894C60.9319 89.6793 61.2072 89.3853 61.4032 89.012C61.6085 88.6293 61.7112 88.1953 61.7112 87.71C61.7112 87.2153 61.6085 86.7813 61.4032 86.408C61.2072 86.0347 60.9319 85.7407 60.5772 85.526C60.2225 85.3113 59.8165 85.204 59.3592 85.204C58.9019 85.204 58.4959 85.3113 58.1412 85.526C57.7959 85.7407 57.5252 86.0347 57.3292 86.408C57.1332 86.7813 57.0352 87.2153 57.0352 87.71C57.0352 88.1953 57.1332 88.6293 57.3292 89.012C57.5252 89.3853 57.7959 89.6793 58.1412 89.894C58.4865 90.0993 58.8879 90.202 59.3452 90.202ZM67.3386 91.14C66.676 91.14 66.0833 90.9907 65.5606 90.692C65.038 90.3933 64.6226 89.9827 64.3146 89.46C64.016 88.9373 63.8666 88.3493 63.8666 87.696C63.8666 87.052 64.016 86.4733 64.3146 85.96C64.6133 85.4373 65.0193 85.0267 65.5326 84.728C66.046 84.4293 66.62 84.28 67.2546 84.28C67.852 84.28 68.3793 84.4153 68.8366 84.686C69.3033 84.9567 69.6673 85.3347 69.9286 85.82C70.1993 86.296 70.3346 86.8467 70.3346 87.472C70.3346 87.5467 70.33 87.6353 70.3206 87.738C70.3113 87.8313 70.2926 87.9433 70.2646 88.074H64.5666V87.234H69.7326L69.3826 87.542C69.392 87.0567 69.308 86.6413 69.1306 86.296C68.9626 85.9413 68.7153 85.6707 68.3886 85.484C68.0713 85.288 67.684 85.19 67.2266 85.19C66.7506 85.19 66.3353 85.2927 65.9806 85.498C65.626 85.7033 65.346 85.9927 65.1406 86.366C64.9446 86.73 64.8466 87.164 64.8466 87.668C64.8466 88.172 64.9493 88.6153 65.1546 88.998C65.3693 89.3807 65.6633 89.6793 66.0366 89.894C66.4193 90.1087 66.858 90.216 67.3526 90.216C67.754 90.216 68.1226 90.146 68.4586 90.006C68.7946 89.8567 69.0793 89.6373 69.3126 89.348L69.9426 89.992C69.6346 90.356 69.252 90.6407 68.7946 90.846C68.3466 91.042 67.8613 91.14 67.3386 91.14ZM71.8338 91V84.42H72.8138V91H71.8338ZM72.8138 87.164L72.4078 86.982C72.4078 86.1513 72.6085 85.4933 73.0098 85.008C73.4205 84.5227 73.9805 84.28 74.6898 84.28C75.0165 84.28 75.3152 84.3407 75.5858 84.462C75.8565 84.574 76.1085 84.756 76.3418 85.008L75.6978 85.694C75.5392 85.5167 75.3618 85.3907 75.1658 85.316C74.9792 85.2413 74.7645 85.204 74.5218 85.204C74.0178 85.204 73.6072 85.372 73.2898 85.708C72.9725 86.0347 72.8138 86.52 72.8138 87.164ZM79.2502 91.14C78.8956 91.14 78.5549 91.0933 78.2282 91C77.9016 90.8973 77.6029 90.7573 77.3322 90.58C77.0709 90.4027 76.8422 90.1927 76.6462 89.95L77.2762 89.306C77.5376 89.6233 77.8316 89.8613 78.1582 90.02C78.4942 90.1693 78.8676 90.244 79.2782 90.244C79.7169 90.244 80.0576 90.16 80.3002 89.992C80.5522 89.824 80.6782 89.5907 80.6782 89.292C80.6782 89.012 80.5896 88.7927 80.4122 88.634C80.2349 88.4753 80.0062 88.3493 79.7262 88.256C79.4556 88.1627 79.1662 88.074 78.8582 87.99C78.5502 87.8967 78.2562 87.7847 77.9762 87.654C77.6962 87.514 77.4676 87.3227 77.2902 87.08C77.1222 86.8373 77.0382 86.52 77.0382 86.128C77.0382 85.7547 77.1269 85.4327 77.3042 85.162C77.4909 84.882 77.7522 84.6673 78.0882 84.518C78.4336 84.3593 78.8396 84.28 79.3062 84.28C79.8009 84.28 80.2489 84.3687 80.6502 84.546C81.0516 84.7233 81.3736 84.9847 81.6162 85.33L80.9862 85.96C80.7902 85.708 80.5429 85.5167 80.2442 85.386C79.9549 85.246 79.6282 85.176 79.2642 85.176C78.8442 85.176 78.5222 85.26 78.2982 85.428C78.0836 85.5867 77.9762 85.7967 77.9762 86.058C77.9762 86.31 78.0649 86.5107 78.2422 86.66C78.4196 86.8 78.6436 86.9167 78.9142 87.01C79.1942 87.094 79.4882 87.1827 79.7962 87.276C80.1042 87.36 80.3982 87.4767 80.6782 87.626C80.9582 87.766 81.1822 87.962 81.3502 88.214C81.5276 88.4567 81.6162 88.788 81.6162 89.208C81.6162 89.796 81.4016 90.2673 80.9722 90.622C80.5522 90.9673 79.9782 91.14 79.2502 91.14ZM84.0638 91.14C83.8305 91.14 83.6392 91.0607 83.4898 90.902C83.3498 90.7433 83.2798 90.5567 83.2798 90.342C83.2798 90.1087 83.3498 89.9173 83.4898 89.768C83.6392 89.6093 83.8305 89.53 84.0638 89.53C84.2878 89.53 84.4745 89.6093 84.6238 89.768C84.7825 89.9173 84.8618 90.1087 84.8618 90.342C84.8618 90.5567 84.7825 90.7433 84.6238 90.902C84.4745 91.0607 84.2878 91.14 84.0638 91.14ZM84.0638 86.73C83.8305 86.73 83.6392 86.6507 83.4898 86.492C83.3498 86.3333 83.2798 86.1467 83.2798 85.932C83.2798 85.6987 83.3498 85.5073 83.4898 85.358C83.6392 85.2087 83.8305 85.134 84.0638 85.134C84.2878 85.134 84.4745 85.2087 84.6238 85.358C84.7825 85.5073 84.8618 85.6987 84.8618 85.932C84.8618 86.1467 84.7825 86.3333 84.6238 86.492C84.4745 86.6507 84.2878 86.73 84.0638 86.73ZM91.5266 91.14C90.9853 91.14 90.5093 91.0373 90.0986 90.832C89.6973 90.6173 89.3519 90.328 89.0626 89.964L89.7906 89.292C89.9959 89.572 90.2386 89.7867 90.5186 89.936C90.7986 90.076 91.1253 90.146 91.4986 90.146C91.8346 90.146 92.1426 90.076 92.4226 89.936C92.7026 89.7867 92.9266 89.558 93.0946 89.25C93.2626 88.942 93.3466 88.5547 93.3466 88.088V81.368H94.3826V88.074C94.3826 88.718 94.2519 89.2687 93.9906 89.726C93.7386 90.1833 93.3933 90.5333 92.9546 90.776C92.5253 91.0187 92.0493 91.14 91.5266 91.14ZM99.4662 91.14C98.8316 91.14 98.2529 90.986 97.7302 90.678C97.2169 90.37 96.8062 89.9547 96.4982 89.432C96.1996 88.9093 96.0502 88.326 96.0502 87.682C96.0502 87.0473 96.1996 86.4733 96.4982 85.96C96.8062 85.4467 97.2169 85.0407 97.7302 84.742C98.2529 84.434 98.8316 84.28 99.4662 84.28C100.11 84.28 100.689 84.4293 101.202 84.728C101.716 85.0267 102.122 85.4373 102.42 85.96C102.728 86.4733 102.882 87.0473 102.882 87.682C102.882 88.3353 102.728 88.9233 102.42 89.446C102.122 89.9593 101.716 90.37 101.202 90.678C100.689 90.986 100.11 91.14 99.4662 91.14ZM99.4662 90.188C99.9329 90.188 100.344 90.0807 100.698 89.866C101.062 89.6513 101.347 89.3527 101.552 88.97C101.767 88.5873 101.874 88.158 101.874 87.682C101.874 87.206 101.767 86.786 101.552 86.422C101.347 86.0487 101.062 85.7547 100.698 85.54C100.344 85.3253 99.9329 85.218 99.4662 85.218C99.0089 85.218 98.5982 85.3253 98.2342 85.54C97.8702 85.7547 97.5856 86.0487 97.3802 86.422C97.1749 86.786 97.0722 87.206 97.0722 87.682C97.0722 88.1673 97.1749 88.6013 97.3802 88.984C97.5856 89.3573 97.8702 89.6513 98.2342 89.866C98.5982 90.0807 99.0089 90.188 99.4662 90.188ZM109.229 91V87.136C109.229 86.5573 109.057 86.0907 108.711 85.736C108.375 85.372 107.927 85.19 107.367 85.19C106.985 85.19 106.649 85.274 106.359 85.442C106.07 85.61 105.841 85.8387 105.673 86.128C105.505 86.4173 105.421 86.7487 105.421 87.122L104.973 86.87C104.973 86.3753 105.09 85.932 105.323 85.54C105.557 85.148 105.869 84.84 106.261 84.616C106.663 84.392 107.12 84.28 107.633 84.28C108.137 84.28 108.585 84.3967 108.977 84.63C109.369 84.854 109.673 85.1667 109.887 85.568C110.111 85.9693 110.223 86.436 110.223 86.968V91H109.229ZM104.441 91V81.088H105.421V91H104.441ZM116.845 91V87.136C116.845 86.5573 116.672 86.0907 116.327 85.736C115.991 85.372 115.543 85.19 114.983 85.19C114.6 85.19 114.264 85.274 113.975 85.442C113.685 85.61 113.457 85.8387 113.289 86.128C113.121 86.4173 113.037 86.7487 113.037 87.122L112.589 86.87C112.589 86.3753 112.705 85.932 112.939 85.54C113.172 85.148 113.485 84.84 113.877 84.616C114.278 84.392 114.735 84.28 115.249 84.28C115.753 84.28 116.201 84.4013 116.593 84.644C116.985 84.8867 117.288 85.2133 117.503 85.624C117.727 86.0347 117.839 86.4827 117.839 86.968V91H116.845ZM112.057 91V84.42H113.037V91H112.057ZM125.578 91.14C124.831 91.14 124.187 91 123.646 90.72C123.104 90.4307 122.628 90.0293 122.218 89.516L122.932 88.816C123.258 89.2733 123.636 89.614 124.066 89.838C124.504 90.062 125.022 90.174 125.62 90.174C126.236 90.174 126.735 90.034 127.118 89.754C127.5 89.474 127.692 89.0867 127.692 88.592C127.692 88.2093 127.603 87.8967 127.426 87.654C127.248 87.402 127.015 87.2013 126.726 87.052C126.446 86.8933 126.133 86.7533 125.788 86.632C125.442 86.5107 125.097 86.3847 124.752 86.254C124.416 86.114 124.103 85.9413 123.814 85.736C123.524 85.5307 123.291 85.2693 123.114 84.952C122.946 84.6347 122.862 84.2287 122.862 83.734C122.862 83.2113 122.988 82.7633 123.24 82.39C123.492 82.0167 123.837 81.732 124.276 81.536C124.714 81.3307 125.214 81.228 125.774 81.228C126.399 81.228 126.954 81.3493 127.44 81.592C127.934 81.8347 128.345 82.1613 128.672 82.572L127.972 83.272C127.673 82.9173 127.346 82.6467 126.992 82.46C126.637 82.2733 126.222 82.18 125.746 82.18C125.186 82.18 124.738 82.3107 124.402 82.572C124.066 82.8333 123.898 83.1973 123.898 83.664C123.898 84.028 123.982 84.322 124.15 84.546C124.327 84.77 124.56 84.9567 124.85 85.106C125.139 85.2553 125.452 85.3907 125.788 85.512C126.133 85.624 126.478 85.75 126.824 85.89C127.169 86.03 127.482 86.2073 127.762 86.422C128.051 86.6367 128.284 86.912 128.462 87.248C128.639 87.5747 128.728 87.9947 128.728 88.508C128.728 89.3387 128.443 89.9873 127.874 90.454C127.314 90.9113 126.548 91.14 125.578 91.14ZM130.432 91V84.42H131.412V91H130.432ZM134.954 91V86.968C134.954 86.4267 134.79 85.9973 134.464 85.68C134.137 85.3533 133.726 85.19 133.232 85.19C132.896 85.19 132.588 85.2647 132.308 85.414C132.037 85.554 131.818 85.7547 131.65 86.016C131.491 86.2773 131.412 86.59 131.412 86.954L130.964 86.772C130.964 86.268 131.076 85.8293 131.3 85.456C131.524 85.0827 131.822 84.7933 132.196 84.588C132.578 84.3827 133.008 84.28 133.484 84.28C133.95 84.28 134.366 84.3827 134.73 84.588C135.103 84.7933 135.397 85.0827 135.612 85.456C135.836 85.8293 135.948 86.2727 135.948 86.786V91H134.954ZM139.49 91V86.968C139.49 86.4267 139.326 85.9973 139 85.68C138.673 85.3533 138.258 85.19 137.754 85.19C137.427 85.19 137.124 85.2647 136.844 85.414C136.573 85.554 136.354 85.7547 136.186 86.016C136.027 86.2773 135.948 86.59 135.948 86.954L135.36 86.772C135.388 86.268 135.518 85.8293 135.752 85.456C135.994 85.0827 136.307 84.7933 136.69 84.588C137.082 84.3827 137.511 84.28 137.978 84.28C138.444 84.28 138.864 84.3827 139.238 84.588C139.62 84.7933 139.919 85.0827 140.134 85.456C140.358 85.8293 140.47 86.2727 140.47 86.786V91H139.49ZM142.312 91V84.42H143.306V91H142.312ZM142.802 82.992C142.616 82.992 142.457 82.9267 142.326 82.796C142.196 82.656 142.13 82.4927 142.13 82.306C142.13 82.11 142.196 81.9467 142.326 81.816C142.457 81.6853 142.616 81.62 142.802 81.62C143.008 81.62 143.171 81.6853 143.292 81.816C143.423 81.9467 143.488 82.11 143.488 82.306C143.488 82.4927 143.423 82.656 143.292 82.796C143.171 82.9267 143.008 82.992 142.802 82.992ZM146.315 91V81.648H147.295V91H146.315ZM144.649 85.302V84.42H148.947V85.302H144.649ZM155.085 91V87.136C155.085 86.5573 154.912 86.0907 154.567 85.736C154.231 85.372 153.783 85.19 153.223 85.19C152.84 85.19 152.504 85.274 152.215 85.442C151.925 85.61 151.697 85.8387 151.529 86.128C151.361 86.4173 151.277 86.7487 151.277 87.122L150.829 86.87C150.829 86.3753 150.945 85.932 151.179 85.54C151.412 85.148 151.725 84.84 152.117 84.616C152.518 84.392 152.975 84.28 153.489 84.28C153.993 84.28 154.441 84.3967 154.833 84.63C155.225 84.854 155.528 85.1667 155.743 85.568C155.967 85.9693 156.079 86.436 156.079 86.968V91H155.085ZM150.297 91V81.088H151.277V91H150.297ZM89.7356 109.14C89.1942 109.14 88.7182 109.037 88.3076 108.832C87.9062 108.617 87.5609 108.328 87.2716 107.964L87.9996 107.292C88.2049 107.572 88.4476 107.787 88.7276 107.936C89.0076 108.076 89.3342 108.146 89.7076 108.146C90.0436 108.146 90.3516 108.076 90.6316 107.936C90.9116 107.787 91.1356 107.558 91.3036 107.25C91.4716 106.942 91.5556 106.555 91.5556 106.088V99.368H92.5916V106.074C92.5916 106.718 92.4609 107.269 92.1996 107.726C91.9476 108.183 91.6022 108.533 91.1636 108.776C90.7342 109.019 90.2582 109.14 89.7356 109.14ZM97.5492 109.14C96.9239 109.14 96.3639 108.991 95.8692 108.692C95.3746 108.384 94.9826 107.973 94.6932 107.46C94.4132 106.947 94.2732 106.368 94.2732 105.724C94.2732 105.071 94.4132 104.487 94.6932 103.974C94.9826 103.451 95.3746 103.041 95.8692 102.742C96.3639 102.434 96.9192 102.28 97.5352 102.28C98.0392 102.28 98.4872 102.383 98.8792 102.588C99.2806 102.784 99.6026 103.064 99.8452 103.428C100.097 103.783 100.251 104.198 100.307 104.674V106.732C100.251 107.208 100.097 107.628 99.8452 107.992C99.6026 108.356 99.2806 108.641 98.8792 108.846C98.4872 109.042 98.0439 109.14 97.5492 109.14ZM97.7032 108.202C98.3846 108.202 98.9306 107.973 99.3412 107.516C99.7612 107.059 99.9712 106.457 99.9712 105.71C99.9712 105.215 99.8732 104.781 99.6772 104.408C99.4906 104.025 99.2246 103.731 98.8792 103.526C98.5432 103.311 98.1466 103.204 97.6892 103.204C97.2226 103.204 96.8072 103.311 96.4432 103.526C96.0886 103.741 95.8039 104.039 95.5892 104.422C95.3839 104.795 95.2812 105.225 95.2812 105.71C95.2812 106.195 95.3839 106.625 95.5892 106.998C95.8039 107.371 96.0932 107.665 96.4572 107.88C96.8212 108.095 97.2366 108.202 97.7032 108.202ZM99.9152 109V107.236L100.111 105.612L99.9152 104.03V102.42H100.895V109H99.9152ZM107.671 109V105.136C107.671 104.557 107.498 104.091 107.153 103.736C106.817 103.372 106.369 103.19 105.809 103.19C105.426 103.19 105.09 103.274 104.801 103.442C104.511 103.61 104.283 103.839 104.115 104.128C103.947 104.417 103.863 104.749 103.863 105.122L103.415 104.87C103.415 104.375 103.531 103.932 103.765 103.54C103.998 103.148 104.311 102.84 104.703 102.616C105.104 102.392 105.561 102.28 106.075 102.28C106.579 102.28 107.027 102.401 107.419 102.644C107.811 102.887 108.114 103.213 108.329 103.624C108.553 104.035 108.665 104.483 108.665 104.968V109H107.671ZM102.883 109V102.42H103.863V109H102.883ZM113.536 109.14C112.873 109.14 112.281 108.991 111.758 108.692C111.235 108.393 110.82 107.983 110.512 107.46C110.213 106.937 110.064 106.349 110.064 105.696C110.064 105.052 110.213 104.473 110.512 103.96C110.811 103.437 111.217 103.027 111.73 102.728C112.243 102.429 112.817 102.28 113.452 102.28C114.049 102.28 114.577 102.415 115.034 102.686C115.501 102.957 115.865 103.335 116.126 103.82C116.397 104.296 116.532 104.847 116.532 105.472C116.532 105.547 116.527 105.635 116.518 105.738C116.509 105.831 116.49 105.943 116.462 106.074H110.764V105.234H115.93L115.58 105.542C115.589 105.057 115.505 104.641 115.328 104.296C115.16 103.941 114.913 103.671 114.586 103.484C114.269 103.288 113.881 103.19 113.424 103.19C112.948 103.19 112.533 103.293 112.178 103.498C111.823 103.703 111.543 103.993 111.338 104.366C111.142 104.73 111.044 105.164 111.044 105.668C111.044 106.172 111.147 106.615 111.352 106.998C111.567 107.381 111.861 107.679 112.234 107.894C112.617 108.109 113.055 108.216 113.55 108.216C113.951 108.216 114.32 108.146 114.656 108.006C114.992 107.857 115.277 107.637 115.51 107.348L116.14 107.992C115.832 108.356 115.449 108.641 114.992 108.846C114.544 109.042 114.059 109.14 113.536 109.14ZM123.937 109.14C123.19 109.14 122.546 109 122.005 108.72C121.464 108.431 120.988 108.029 120.577 107.516L121.291 106.816C121.618 107.273 121.996 107.614 122.425 107.838C122.864 108.062 123.382 108.174 123.979 108.174C124.595 108.174 125.094 108.034 125.477 107.754C125.86 107.474 126.051 107.087 126.051 106.592C126.051 106.209 125.962 105.897 125.785 105.654C125.608 105.402 125.374 105.201 125.085 105.052C124.805 104.893 124.492 104.753 124.147 104.632C123.802 104.511 123.456 104.385 123.111 104.254C122.775 104.114 122.462 103.941 122.173 103.736C121.884 103.531 121.65 103.269 121.473 102.952C121.305 102.635 121.221 102.229 121.221 101.734C121.221 101.211 121.347 100.763 121.599 100.39C121.851 100.017 122.196 99.732 122.635 99.536C123.074 99.3307 123.573 99.228 124.133 99.228C124.758 99.228 125.314 99.3493 125.799 99.592C126.294 99.8347 126.704 100.161 127.031 100.572L126.331 101.272C126.032 100.917 125.706 100.647 125.351 100.46C124.996 100.273 124.581 100.18 124.105 100.18C123.545 100.18 123.097 100.311 122.761 100.572C122.425 100.833 122.257 101.197 122.257 101.664C122.257 102.028 122.341 102.322 122.509 102.546C122.686 102.77 122.92 102.957 123.209 103.106C123.498 103.255 123.811 103.391 124.147 103.512C124.492 103.624 124.838 103.75 125.183 103.89C125.528 104.03 125.841 104.207 126.121 104.422C126.41 104.637 126.644 104.912 126.821 105.248C126.998 105.575 127.087 105.995 127.087 106.508C127.087 107.339 126.802 107.987 126.233 108.454C125.673 108.911 124.908 109.14 123.937 109.14ZM128.791 109V102.42H129.771V109H128.791ZM133.313 109V104.968C133.313 104.427 133.15 103.997 132.823 103.68C132.496 103.353 132.086 103.19 131.591 103.19C131.255 103.19 130.947 103.265 130.667 103.414C130.396 103.554 130.177 103.755 130.009 104.016C129.85 104.277 129.771 104.59 129.771 104.954L129.323 104.772C129.323 104.268 129.435 103.829 129.659 103.456C129.883 103.083 130.182 102.793 130.555 102.588C130.938 102.383 131.367 102.28 131.843 102.28C132.31 102.28 132.725 102.383 133.089 102.588C133.462 102.793 133.756 103.083 133.971 103.456C134.195 103.829 134.307 104.273 134.307 104.786V109H133.313ZM137.849 109V104.968C137.849 104.427 137.686 103.997 137.359 103.68C137.032 103.353 136.617 103.19 136.113 103.19C135.786 103.19 135.483 103.265 135.203 103.414C134.932 103.554 134.713 103.755 134.545 104.016C134.386 104.277 134.307 104.59 134.307 104.954L133.719 104.772C133.747 104.268 133.878 103.829 134.111 103.456C134.354 103.083 134.666 102.793 135.049 102.588C135.441 102.383 135.87 102.28 136.337 102.28C136.804 102.28 137.224 102.383 137.597 102.588C137.98 102.793 138.278 103.083 138.493 103.456C138.717 103.829 138.829 104.273 138.829 104.786V109H137.849ZM140.672 109V102.42H141.666V109H140.672ZM141.162 100.992C140.975 100.992 140.816 100.927 140.686 100.796C140.555 100.656 140.49 100.493 140.49 100.306C140.49 100.11 140.555 99.9467 140.686 99.816C140.816 99.6853 140.975 99.62 141.162 99.62C141.367 99.62 141.53 99.6853 141.652 99.816C141.782 99.9467 141.848 100.11 141.848 100.306C141.848 100.493 141.782 100.656 141.652 100.796C141.53 100.927 141.367 100.992 141.162 100.992ZM144.674 109V99.648H145.654V109H144.674ZM143.008 103.302V102.42H147.306V103.302H143.008ZM153.444 109V105.136C153.444 104.557 153.271 104.091 152.926 103.736C152.59 103.372 152.142 103.19 151.582 103.19C151.199 103.19 150.863 103.274 150.574 103.442C150.285 103.61 150.056 103.839 149.888 104.128C149.72 104.417 149.636 104.749 149.636 105.122L149.188 104.87C149.188 104.375 149.305 103.932 149.538 103.54C149.771 103.148 150.084 102.84 150.476 102.616C150.877 102.392 151.335 102.28 151.848 102.28C152.352 102.28 152.8 102.397 153.192 102.63C153.584 102.854 153.887 103.167 154.102 103.568C154.326 103.969 154.438 104.436 154.438 104.968V109H153.444ZM148.656 109V99.088H149.636V109H148.656Z" fill="black"/>
</g>
<defs>
<filter id="filter0_d_219_1202" x="0" y="0" width="177" height="137" filterUnits="userSpaceOnUse" color-interpolation-filters="sRGB">
<feFlood flood-opacity="0" result="BackgroundImageFix"/>
<feColorMatrix in="SourceAlpha" type="matrix" values="0 0 0 0 0 0 0 0 0 0 0 0 0 0 0 0 0 0 127 0" result="hardAlpha"/>
<feOffset dx="-4" dy="4"/>
<feGaussianBlur stdDeviation="5"/>
<feComposite in2="hardAlpha" operator="out"/>
<feColorMatrix type="matrix" values="0 0 0 0 0 0 0 0 0 0 0 0 0 0 0 0 0 0 0.1 0"/>
<feBlend mode="normal" in2="BackgroundImageFix" result="effect1_dropShadow_219_1202"/>
<feBlend mode="normal" in="SourceGraphic" in2="effect1_dropShadow_219_1202" result="shape"/>
</filter>
</defs>
</svg>
