<svg width="151" height="151" viewBox="0 0 151 151" fill="none" xmlns="http://www.w3.org/2000/svg">
<g filter="url(#filter0_d_262_185)">
<rect x="15.4902" y="8" width="120" height="120" rx="30" fill="#4F1787"/>
</g>
<path d="M80.6717 101.75C77.0353 101.75 73.5808 101.295 70.3081 100.386C67.1262 99.3864 64.1717 98.0227 61.4444 96.2955C58.7172 94.4773 56.3535 92.3409 54.3535 89.8864L62.2626 81.9773C64.6262 84.8864 67.3535 87.0682 70.4444 88.5227C73.5353 89.8864 76.9899 90.5682 80.8081 90.5682C84.6262 90.5682 87.5808 89.9318 89.6717 88.6591C91.7626 87.2955 92.8081 85.4318 92.8081 83.0682C92.8081 80.7045 91.9444 78.8864 90.2172 77.6136C88.5808 76.25 86.4444 75.1591 83.8081 74.3409C81.1717 73.4318 78.3535 72.5682 75.3535 71.75C72.4444 70.8409 69.6717 69.7045 67.0353 68.3409C64.399 66.9773 62.2172 65.1136 60.4899 62.75C58.8535 60.3864 58.0353 57.25 58.0353 53.3409C58.0353 49.4318 58.9899 46.0682 60.899 43.25C62.8081 40.3409 65.4444 38.1136 68.8081 36.5682C72.2626 35.0227 76.399 34.25 81.2172 34.25C86.3081 34.25 90.8081 35.1591 94.7172 36.9773C98.7172 38.7045 101.99 41.3409 104.535 44.8864L96.6262 52.7955C94.8081 50.4318 92.5353 48.6136 89.8081 47.3409C87.1717 46.0682 84.1717 45.4318 80.8081 45.4318C77.2626 45.4318 74.5353 46.0682 72.6262 47.3409C70.8081 48.5227 69.899 50.2045 69.899 52.3864C69.899 54.5682 70.7172 56.25 72.3535 57.4318C73.9899 58.6136 76.1262 59.6136 78.7626 60.4318C81.4899 61.25 84.3081 62.1136 87.2172 63.0227C90.1262 63.8409 92.899 64.9773 95.5353 66.4318C98.1717 67.8864 100.308 69.8409 101.944 72.2955C103.672 74.75 104.535 77.9773 104.535 81.9773C104.535 88.0682 102.354 92.8864 97.9899 96.4318C93.7172 99.9773 87.9444 101.75 80.6717 101.75Z" fill="#BAFF26"/>
<ellipse cx="53.1266" cy="80.6139" rx="6.13636" ry="6.13636" fill="#BAFF26"/>
<defs>
<filter id="filter0_d_262_185" x="0.490234" y="0.5" width="150" height="150" filterUnits="userSpaceOnUse" color-interpolation-filters="sRGB">
<feFlood flood-opacity="0" result="BackgroundImageFix"/>
<feColorMatrix in="SourceAlpha" type="matrix" values="0 0 0 0 0 0 0 0 0 0 0 0 0 0 0 0 0 0 127 0" result="hardAlpha"/>
<feOffset dy="7.5"/>
<feGaussianBlur stdDeviation="7.5"/>
<feComposite in2="hardAlpha" operator="out"/>
<feColorMatrix type="matrix" values="0 0 0 0 0.309804 0 0 0 0 0.0901961 0 0 0 0 0.529412 0 0 0 0.1 0"/>
<feBlend mode="normal" in2="BackgroundImageFix" result="effect1_dropShadow_262_185"/>
<feBlend mode="normal" in="SourceGraphic" in2="effect1_dropShadow_262_185" result="shape"/>
</filter>
</defs>
</svg>
